<svg width="519" height="293" viewBox="0 0 519 293" fill="none" xmlns="http://www.w3.org/2000/svg">
<path d="M12.96 85.04L12.7496 85.4936L12.7521 85.4947L12.96 85.04ZM4.56 78.08L4.13591 78.3451L4.14165 78.3538L4.56 78.08ZM1.76 67.84V67.34H1.26V67.84H1.76ZM16.16 67.84H16.66V67.34H16.16V67.84ZM17.28 71.68L16.8582 71.9484L16.8654 71.9597L16.8731 71.9706L17.28 71.68ZM20.8 74.32L20.9912 73.858H20.9912L20.8 74.32ZM32 74.48L31.8318 74.0091L31.8263 74.0111L32 74.48ZM35.36 72.24L34.9759 71.9199L34.9705 71.9264L34.9653 71.933L35.36 72.24ZM34.4 64.88L34.1226 65.2962L34.1336 65.3031L34.4 64.88ZM27.12 63.04L27.0776 63.5382L27.0811 63.5385L27.12 63.04ZM23.36 62.72L23.3159 63.2181L23.3176 63.2182L23.36 62.72ZM8.96 57.04L8.62339 57.4097L8.96 57.04ZM6.24 34.24L5.82394 33.9626L5.82022 33.9684L6.24 34.24ZM37.52 28.24L37.3022 28.6901L37.305 28.6914L37.52 28.24ZM45.2 35.04L44.7712 35.2973L44.7734 35.3007L45.2 35.04ZM47.84 45.12V45.62H48.34V45.12H47.84ZM33.44 45.12H32.94V45.62H33.44V45.12ZM32.48 41.6L32.0513 41.8572L32.48 41.6ZM29.68 39.12L29.4406 39.5589L29.4523 39.5653L29.4643 39.5711L29.68 39.12ZM21.28 38.96L21.4852 39.4161L21.495 39.4114L21.28 38.96ZM18.8 41.04L18.3802 40.7684L18.3744 40.7773L18.369 40.7865L18.8 41.04ZM19.52 47.92L19.1575 48.2644L19.52 47.92ZM24.8 49.84L24.7576 50.3382L24.8 49.84ZM28.56 50.16L28.6025 49.6618L28.6024 49.6618L28.56 50.16ZM40.16 53.04L39.9509 53.4942L39.9569 53.4969L40.16 53.04ZM48 78.72L47.59 78.4338L47.5864 78.4391L48 78.72ZM39.68 85.28L39.4839 84.8201L39.4814 84.8211L39.68 85.28ZM26.72 87.1C21.3295 87.1 16.8184 86.2541 13.1679 84.5853L12.7521 85.4947C16.5683 87.2393 21.2305 88.1 26.72 88.1V87.1ZM13.1704 84.5864C9.56156 82.9128 6.83956 80.6497 4.97835 77.8062L4.14165 78.3538C6.12044 81.377 8.99844 83.7539 12.7496 85.4936L13.1704 84.5864ZM4.984 77.815C3.17145 74.9149 2.26 71.5951 2.26 67.84H1.26C1.26 71.7649 2.21521 75.2717 4.136 78.345L4.984 77.815ZM1.76 68.34H16.16V67.34H1.76V68.34ZM15.66 67.84C15.66 69.3221 16.0606 70.6951 16.8582 71.9484L17.7018 71.4116C17.0061 70.3182 16.66 69.1313 16.66 67.84H15.66ZM16.8731 71.9706C17.7383 73.1818 18.9944 74.114 20.6088 74.782L20.9912 73.858C19.5123 73.246 18.4217 72.4182 17.6869 71.3894L16.8731 71.9706ZM20.6088 74.782C22.2364 75.4555 24.2806 75.78 26.72 75.78V74.78C24.3594 74.78 22.457 74.4645 20.9912 73.858L20.6088 74.782ZM26.72 75.78C28.8396 75.78 30.6622 75.5087 32.1737 74.9489L31.8263 74.0111C30.4578 74.518 28.7604 74.78 26.72 74.78V75.78ZM32.1682 74.9509C33.7243 74.3951 34.9343 73.6017 35.7547 72.547L34.9653 71.933C34.2923 72.7983 33.2624 73.4982 31.8318 74.0091L32.1682 74.9509ZM35.7441 72.5601C36.6242 71.5039 37.06 70.2418 37.06 68.8H36.06C36.06 70.0248 35.6958 71.056 34.9759 71.9199L35.7441 72.5601ZM37.06 68.8C37.06 66.9221 36.2523 65.4554 34.6664 64.4569L34.1336 65.3031C35.4277 66.1179 36.06 67.2645 36.06 68.8H37.06ZM34.6773 64.464C33.1253 63.4293 30.5893 62.8095 27.1589 62.5415L27.0811 63.5385C30.4774 63.8038 32.7947 64.4107 34.1227 65.296L34.6773 64.464ZM27.1624 62.5418L23.4024 62.2218L23.3176 63.2182L27.0776 63.5382L27.1624 62.5418ZM23.4041 62.2219C17.4584 61.6958 12.7706 59.8331 9.29661 56.6703L8.62339 57.4097C12.2961 60.7535 17.2082 62.6775 23.3159 63.2181L23.4041 62.2219ZM9.29661 56.6703C5.83991 53.5231 4.1 49.3439 4.1 44.08H3.1C3.1 49.5895 4.93342 54.0502 8.62339 57.4097L9.29661 56.6703ZM4.1 44.08C4.1 40.3182 4.9612 37.1367 6.65979 34.5116L5.82022 33.9684C3.9988 36.7833 3.1 40.1618 3.1 44.08H4.1ZM6.65603 34.5173C8.41203 31.8833 10.8679 29.8623 14.0424 28.4572L13.6376 27.5428C10.3054 29.0177 7.69463 31.1567 5.82398 33.9626L6.65603 34.5173ZM14.0424 28.4572C17.2184 27.0514 20.9865 26.34 25.36 26.34V25.34C20.8802 25.34 16.9683 26.0686 13.6376 27.5428L14.0424 28.4572ZM25.36 26.34C30.1068 26.34 34.081 27.1314 37.3022 28.6901L37.7378 27.7899C34.3457 26.1486 30.2132 25.34 25.36 25.34V26.34ZM37.305 28.6914C40.5844 30.253 43.0663 32.4557 44.7713 35.2972L45.6287 34.7828C43.8137 31.7576 41.1756 29.427 37.735 27.7886L37.305 28.6914ZM44.7734 35.3007C46.4791 38.0919 47.34 41.359 47.34 45.12H48.34C48.34 41.201 47.441 37.7481 45.6266 34.7793L44.7734 35.3007ZM47.84 44.62H33.44V45.62H47.84V44.62ZM33.94 45.12C33.94 43.7521 33.5968 42.4895 32.9087 41.3428L32.0513 41.8572C32.6432 42.8439 32.94 43.9279 32.94 45.12H33.94ZM32.9087 41.3428C32.2136 40.1842 31.2023 39.2938 29.8957 38.6689L29.4643 39.5711C30.611 40.1195 31.4664 40.8825 32.0513 41.8572L32.9087 41.3428ZM29.9194 38.6811C28.6551 37.9914 27.1277 37.66 25.36 37.66V38.66C27.0056 38.66 28.3583 38.9686 29.4406 39.5589L29.9194 38.6811ZM25.36 37.66C23.7064 37.66 22.2687 37.9354 21.065 38.5086L21.495 39.4114C22.5313 38.9179 23.8136 38.66 25.36 38.66V37.66ZM21.0748 38.504C19.928 39.0201 19.0235 39.7741 18.3802 40.7684L19.2198 41.3116C19.7498 40.4925 20.4987 39.8599 21.4852 39.416L21.0748 38.504ZM18.369 40.7865C17.7876 41.775 17.5 42.8768 17.5 44.08H18.5C18.5 43.0432 18.7458 42.1183 19.231 41.2935L18.369 40.7865ZM17.5 44.08C17.5 45.6994 18.0544 47.1032 19.1575 48.2644L19.8825 47.5756C18.9589 46.6034 18.5 45.4473 18.5 44.08H17.5ZM19.1575 48.2644C20.2974 49.4643 22.2086 50.1213 24.7576 50.3382L24.8424 49.3418C22.3781 49.1321 20.7693 48.5091 19.8825 47.5756L19.1575 48.2644ZM24.7576 50.3382L28.5176 50.6582L28.6024 49.6618L24.8424 49.3418L24.7576 50.3382ZM28.5175 50.6582C32.8437 51.0275 36.6523 51.9758 39.9509 53.4942L40.3691 52.5858C36.9477 51.0109 33.023 50.0392 28.6025 49.6618L28.5175 50.6582ZM39.9569 53.4969C43.2483 54.9597 45.8151 56.9618 47.6771 59.496L48.4829 58.904C46.5049 56.2116 43.7917 54.1069 40.3631 52.5831L39.9569 53.4969ZM47.6771 59.496C49.5239 62.0098 50.46 65.1014 50.46 68.8H51.46C51.46 64.9253 50.4761 61.6169 48.4829 58.904L47.6771 59.496ZM50.46 68.8C50.46 72.4949 49.499 75.6993 47.59 78.4338L48.41 79.0062C50.4477 76.0873 51.46 72.6785 51.46 68.8H50.46ZM47.5864 78.4391C45.7281 81.1748 43.0363 83.3051 39.4839 84.8201L39.8761 85.7399C43.5771 84.1616 46.4319 81.9185 48.4136 79.0009L47.5864 78.4391ZM39.4814 84.8211C35.9866 86.3338 31.738 87.1 26.72 87.1V88.1C31.8353 88.1 36.2268 87.3195 39.8786 85.7389L39.4814 84.8211ZM73.6144 85.84L73.7944 85.3735L73.6144 85.84ZM65.8544 80.96L65.5008 81.3136L65.5053 81.318L65.8544 80.96ZM61.0544 73.76L60.5888 73.9426L60.592 73.9504L61.0544 73.76ZM61.1344 54.16L60.6738 53.9652L60.6708 53.9728L61.1344 54.16ZM66.0944 46.88L65.7453 46.522L66.0944 46.88ZM94.1744 42L93.9915 42.4654L93.9943 42.4665L94.1744 42ZM101.934 46.88L101.585 47.238L101.934 46.88ZM106.814 54.16L106.351 54.3473L106.354 54.3548L106.814 54.16ZM106.894 73.76L106.432 73.5696L106.429 73.5775L106.894 73.76ZM102.094 80.96L101.745 80.602L101.741 80.6064L102.094 80.96ZM94.4144 85.84L94.2343 85.3735L94.4144 85.84ZM89.5344 74L89.264 73.5794L89.257 73.584L89.5344 74ZM92.8944 70L93.3525 70.2004L93.3547 70.1953L92.8944 70ZM92.8144 58.08L92.3541 58.2753L92.3577 58.2838L92.3616 58.2922L92.8144 58.08ZM78.5744 53.92L78.2936 53.5063L78.5744 53.92ZM75.1344 58.08L74.6791 57.8731L74.6763 57.8796L75.1344 58.08ZM75.1344 70L74.6741 70.1953L74.6763 70.2004L75.1344 70ZM84.0144 87.1C80.1709 87.1 76.767 86.5208 73.7944 85.3735L73.4343 86.3065C76.5418 87.5058 80.0712 88.1 84.0144 88.1V87.1ZM73.7944 85.3735C70.8116 84.2223 68.284 82.6305 66.2034 80.602L65.5053 81.318C67.6915 83.4495 70.3372 85.1111 73.4343 86.3065L73.7944 85.3735ZM66.2079 80.6064C64.1746 78.5731 62.6116 76.2286 61.5167 73.5696L60.592 73.9504C61.7372 76.7314 63.3741 79.1869 65.5008 81.3136L66.2079 80.6064ZM61.5199 73.5775C60.4773 70.919 59.9544 68.0746 59.9544 65.04H58.9544C58.9544 68.1921 59.4981 71.161 60.5889 73.9425L61.5199 73.5775ZM59.9544 65.04V63.12H58.9544V65.04H59.9544ZM59.9544 63.12C59.9544 59.9796 60.5037 57.057 61.598 54.3472L60.6708 53.9728C59.5251 56.8097 58.9544 59.8604 58.9544 63.12H59.9544ZM61.5949 54.3548C62.7426 51.6421 64.3582 49.2711 66.4434 47.238L65.7453 46.522C63.5638 48.6489 61.8729 51.1313 60.6739 53.9652L61.5949 54.3548ZM66.4434 47.238C68.524 45.2095 71.0516 43.6177 74.0344 42.4665L73.6743 41.5335C70.5772 42.7289 67.9314 44.3905 65.7453 46.522L66.4434 47.238ZM74.0344 42.4665C77.0092 41.3183 80.3337 40.74 84.0144 40.74V39.74C80.2283 39.74 76.7795 40.3351 73.6743 41.5335L74.0344 42.4665ZM84.0144 40.74C87.7495 40.74 91.0726 41.3186 93.9916 42.4654L94.3572 41.5346C91.3028 40.3347 87.8526 39.74 84.0144 39.74V40.74ZM93.9943 42.4665C96.9772 43.6177 99.5048 45.2095 101.585 47.238L102.283 46.522C100.097 44.3905 97.4516 42.7289 94.3544 41.5335L93.9943 42.4665ZM101.585 47.238C103.669 49.2694 105.257 51.6379 106.351 54.3472L107.278 53.9728C106.132 51.1354 104.467 48.6506 102.283 46.522L101.585 47.238ZM106.354 54.3548C107.5 57.0627 108.074 59.9827 108.074 63.12H109.074C109.074 59.8573 108.476 56.804 107.275 53.9652L106.354 54.3548ZM108.074 63.12V65.04H109.074V63.12H108.074ZM108.074 65.04C108.074 68.0714 107.526 70.9131 106.432 73.5696L107.357 73.9504C108.503 71.1669 109.074 68.1952 109.074 65.04H108.074ZM106.429 73.5775C105.389 76.23 103.829 78.5705 101.745 80.602L102.443 81.318C104.627 79.1895 106.267 76.73 107.36 73.9425L106.429 73.5775ZM101.741 80.6064C99.7152 82.632 97.2163 84.2226 94.2343 85.3735L94.5944 86.3065C97.6924 85.1107 100.314 83.448 102.448 81.3136L101.741 80.6064ZM94.2343 85.3735C91.2618 86.5208 87.8579 87.1 84.0144 87.1V88.1C87.9576 88.1 91.487 87.5058 94.5944 86.3065L94.2343 85.3735ZM84.0144 75.94C86.3243 75.94 88.2685 75.4448 89.8117 74.416L89.257 73.584C87.9202 74.4752 86.1844 74.94 84.0144 74.94V75.94ZM89.8048 74.4206C91.3852 73.4046 92.5683 71.9927 93.3525 70.2004L92.4363 69.7996C91.7271 71.4207 90.6702 72.6754 89.264 73.5794L89.8048 74.4206ZM93.3547 70.1953C94.131 68.3653 94.5144 66.3242 94.5144 64.08H93.5144C93.5144 66.2092 93.151 68.1147 92.4341 69.8047L93.3547 70.1953ZM94.5144 64.08C94.5144 61.7289 94.1042 59.6537 93.2671 57.8678L92.3616 58.2922C93.1245 59.9197 93.5144 61.8444 93.5144 64.08H94.5144ZM93.2747 57.8847C92.4928 56.0417 91.3129 54.5769 89.7351 53.5063L89.1736 54.3337C90.5825 55.2898 91.6427 56.5983 92.3541 58.2753L93.2747 57.8847ZM89.7351 53.5063C88.1448 52.4271 86.2292 51.9 84.0144 51.9V52.9C86.0662 52.9 87.7773 53.3862 89.1736 54.3337L89.7351 53.5063ZM84.0144 51.9C81.7996 51.9 79.884 52.4271 78.2936 53.5063L78.8551 54.3337C80.2514 53.3862 81.9625 52.9 84.0144 52.9V51.9ZM78.2936 53.5063C76.7188 54.5749 75.5144 56.0356 74.6792 57.8731L75.5896 58.2869C76.3543 56.6044 77.4433 55.2918 78.8551 54.3337L78.2936 53.5063ZM74.6763 57.8796C73.8964 59.6623 73.5144 61.7332 73.5144 64.08H74.5144C74.5144 61.8401 74.879 59.9111 75.5925 58.2804L74.6763 57.8796ZM73.5144 64.08C73.5144 66.3242 73.8977 68.3653 74.6741 70.1953L75.5947 69.8047C74.8777 68.1147 74.5144 66.2092 74.5144 64.08H73.5144ZM74.6763 70.2004C75.4604 71.9927 76.6436 73.4046 78.224 74.4206L78.7648 73.5794C77.3585 72.6754 76.3017 71.4207 75.5925 69.7996L74.6763 70.2004ZM78.224 74.4206C79.8149 75.4433 81.7541 75.94 84.0144 75.94V74.94C81.9013 74.94 80.1605 74.4767 78.7648 73.5794L78.224 74.4206ZM120.546 86H120.046V86.5H120.546V86ZM120.546 41.84V41.34H120.046V41.84H120.546ZM132.066 41.84H132.566V41.34H132.066V41.84ZM132.066 61.04V61.54H132.566V61.04H132.066ZM131.906 61.04H131.406V61.54H131.906V61.04ZM135.746 46.48L135.344 46.1819L135.341 46.1859L135.746 46.48ZM148.706 41.2H149.206V40.7H148.706V41.2ZM148.706 53.68V54.18H149.206V53.68H148.706ZM137.746 56.32L137.397 55.9612L137.392 55.9664L137.746 56.32ZM135.106 86V86.5H135.606V86H135.106ZM121.046 86V41.84H120.046V86H121.046ZM120.546 42.34H132.066V41.34H120.546V42.34ZM131.566 41.84V61.04H132.566V41.84H131.566ZM132.066 60.54H131.906V61.54H132.066V60.54ZM132.406 61.04C132.406 54.9159 133.673 50.1794 136.15 46.7741L135.341 46.1859C132.698 49.8206 131.406 54.7907 131.406 61.04H132.406ZM136.147 46.778C138.655 43.4 142.231 41.7 146.946 41.7V40.7C141.954 40.7 138.063 42.52 135.344 46.1819L136.147 46.778ZM146.946 41.7H148.706V40.7H146.946V41.7ZM148.206 41.2V53.68H149.206V41.2H148.206ZM148.706 53.18H145.346V54.18H148.706V53.18ZM145.346 53.18C142.001 53.18 139.329 54.0868 137.397 55.9612L138.094 56.6788C139.789 55.0332 142.183 54.18 145.346 54.18V53.18ZM137.392 55.9664C135.511 57.8479 134.606 60.5258 134.606 63.92H135.606C135.606 60.7009 136.461 58.3121 138.099 56.6736L137.392 55.9664ZM134.606 63.92V86H135.606V63.92H134.606ZM135.106 85.5H120.546V86.5H135.106V85.5ZM184.859 86H184.359V86.5H184.859V86ZM184.859 73.04H185.359V72.54H184.859V73.04ZM182.459 73.04H181.959V73.54H182.459V73.04ZM181.019 54.72L180.647 55.0534L180.656 55.0637L180.666 55.0736L181.019 54.72ZM171.979 53.28L171.993 53.7798L171.979 53.28ZM165.739 53.52L165.764 54.0194L165.739 53.52ZM159.739 53.84H159.239V54.3703L159.769 54.3391L159.739 53.84ZM159.739 41.68L159.698 41.1817L159.239 41.2199V41.68H159.739ZM164.299 41.36L164.269 40.8609L164.299 41.36ZM169.739 41.12L169.725 40.6202L169.725 40.6202L169.739 41.12ZM186.539 43.04L186.344 43.5004L186.347 43.5015L186.539 43.04ZM193.819 49.04L193.394 49.3035L193.398 49.3095L193.819 49.04ZM196.379 86V86.5H196.879V86H196.379ZM156.939 80.64L156.515 80.905L156.519 80.9112L156.523 80.9174L156.939 80.64ZM157.579 65.04L157.957 65.3679L157.961 65.363L157.579 65.04ZM164.859 60.48L165.008 60.9575L164.859 60.48ZM184.059 59.04H184.559V58.54H184.059V59.04ZM184.059 66.56V67.06H184.559V66.56H184.059ZM170.939 68.08L171.274 68.4518L171.284 68.4425L170.939 68.08ZM170.939 75.92L170.595 76.2826L170.605 76.2916L170.939 75.92ZM178.859 76.72L179.062 77.177L179.073 77.1719L178.859 76.72ZM181.339 74.32L180.905 74.0719L181.339 74.32ZM182.459 69.68L182.804 69.3179L182.019 68.5698L181.96 69.653L182.459 69.68ZM185.819 72.88L186.317 72.9237L186.339 72.6839L186.164 72.5179L185.819 72.88ZM183.579 80.64L183.146 80.3908L183.144 80.3943L183.579 80.64ZM178.619 85.44L178.387 84.9973L178.382 84.9998L178.619 85.44ZM185.359 86V73.04H184.359V86H185.359ZM184.859 72.54H182.459V73.54H184.859V72.54ZM182.959 73.04V59.2H181.959V73.04H182.959ZM182.959 59.2C182.959 57.1054 182.464 55.4577 181.373 54.3664L180.666 55.0736C181.495 55.9023 181.959 57.2412 181.959 59.2H182.959ZM181.392 54.3866C180.348 53.2196 178.655 52.7 176.459 52.7V53.7C178.53 53.7 179.878 54.1938 180.647 55.0534L181.392 54.3866ZM176.459 52.7C175.439 52.7 173.94 52.7268 171.966 52.7802L171.993 53.7798C173.965 53.7265 175.453 53.7 176.459 53.7V52.7ZM171.966 52.7802C169.989 52.8336 167.905 52.9138 165.715 53.0206L165.764 54.0194C167.947 53.9129 170.024 53.833 171.993 53.7798L171.966 52.7802ZM165.715 53.0206C163.527 53.1273 161.525 53.2341 159.71 53.3409L159.769 54.3391C161.58 54.2326 163.578 54.126 165.764 54.0194L165.715 53.0206ZM160.239 53.84V41.68H159.239V53.84H160.239ZM159.781 42.1783C161.056 42.072 162.572 41.9656 164.33 41.8591L164.269 40.8609C162.507 40.9677 160.983 41.0747 159.698 41.1817L159.781 42.1783ZM164.33 41.8591C166.084 41.7528 167.892 41.673 169.754 41.6198L169.725 40.6202C167.853 40.6737 166.035 40.7539 164.269 40.8609L164.33 41.8591ZM169.753 41.6198C171.67 41.5666 173.425 41.54 175.019 41.54V40.54C173.414 40.54 171.649 40.5668 169.725 40.6202L169.753 41.6198ZM175.019 41.54C179.506 41.54 183.276 42.2002 186.344 43.5004L186.734 42.5796C183.509 41.2131 179.599 40.54 175.019 40.54V41.54ZM186.347 43.5015C189.461 44.7992 191.802 46.7348 193.394 49.3035L194.244 48.7765C192.53 46.0119 190.017 43.9475 186.732 42.5785L186.347 43.5015ZM193.398 49.3095C195.04 51.875 195.879 55.1609 195.879 59.2H196.879C196.879 55.0258 196.012 51.5383 194.241 48.7705L193.398 49.3095ZM195.879 59.2V86H196.879V59.2H195.879ZM196.379 85.5H184.859V86.5H196.379V85.5ZM170.859 86.62C167.827 86.62 165.154 86.0712 162.831 84.9869L162.408 85.8931C164.884 87.0488 167.705 87.62 170.859 87.62V86.62ZM162.831 84.9869C160.509 83.9032 158.688 82.3618 157.355 80.3626L156.523 80.9174C157.964 83.0782 159.93 84.7368 162.408 85.8931L162.831 84.9869ZM157.363 80.375C156.087 78.3336 155.439 75.8954 155.439 73.04H154.439C154.439 76.0512 155.125 78.6798 156.515 80.905L157.363 80.375ZM155.439 73.04C155.439 69.8248 156.293 67.2838 157.957 65.3678L157.202 64.7122C155.346 66.8495 154.439 69.6419 154.439 73.04H155.439ZM157.961 65.363C159.649 63.3684 161.988 61.8947 165.008 60.9575L164.711 60.0025C161.544 60.9853 159.03 62.5516 157.198 64.717L157.961 65.363ZM165.008 60.9575C168.043 60.0154 171.538 59.54 175.499 59.54V58.54C171.46 58.54 167.862 59.0246 164.711 60.0025L165.008 60.9575ZM175.499 59.54H184.059V58.54H175.499V59.54ZM183.559 59.04V66.56H184.559V59.04H183.559ZM184.059 66.06H175.499V67.06H184.059V66.06ZM175.499 66.06C173.443 66.06 171.783 66.5893 170.595 67.7175L171.284 68.4425C172.229 67.5441 173.609 67.06 175.499 67.06V66.06ZM170.605 67.7084C169.416 68.778 168.839 70.2287 168.839 72H169.839C169.839 70.4646 170.329 69.302 171.274 68.4516L170.605 67.7084ZM168.839 72C168.839 73.7237 169.42 75.166 170.595 76.2825L171.284 75.5575C170.326 74.6474 169.839 73.4763 169.839 72H168.839ZM170.605 76.2916C171.793 77.3609 173.449 77.86 175.499 77.86V76.86C173.603 76.86 172.219 76.3991 171.274 75.5484L170.605 76.2916ZM175.499 77.86C176.834 77.86 178.026 77.6375 179.062 77.1769L178.656 76.2631C177.773 76.6559 176.724 76.86 175.499 76.86V77.86ZM179.073 77.1719C180.193 76.6417 181.091 75.7631 181.773 74.5681L180.905 74.0719C180.308 75.1169 179.553 75.8383 178.645 76.2681L179.073 77.1719ZM181.773 74.5681C182.467 73.354 182.85 71.7205 182.959 69.707L181.96 69.653C181.856 71.5862 181.492 73.046 180.905 74.0719L181.773 74.5681ZM182.115 70.0421L185.475 73.2421L186.164 72.5179L182.804 69.3179L182.115 70.0421ZM185.321 72.8363C185.059 75.8208 184.329 78.3337 183.146 80.3908L184.013 80.8892C185.283 78.6797 186.046 76.0191 186.317 72.9237L185.321 72.8363ZM183.144 80.3943C182.018 82.3897 180.436 83.9216 178.387 84.9973L178.852 85.8827C181.07 84.7184 182.794 83.0503 184.015 80.8857L183.144 80.3943ZM178.382 84.9998C176.394 86.0703 173.895 86.62 170.859 86.62V87.62C174.011 87.62 176.685 87.0497 178.856 85.8802L178.382 84.9998Z" fill="black" fill-opacity="0.3"/>
<path d="M21.504 87.216C17.28 87.216 13.7173 86.5547 10.816 85.232C7.91467 83.8667 5.71733 82.032 4.224 79.728C2.73067 77.3813 1.984 74.6933 1.984 71.664H12.16C12.16 72.8587 12.48 73.968 13.12 74.992C13.8027 76.016 14.8267 76.848 16.192 77.488C17.5573 78.0853 19.328 78.384 21.504 78.384C23.4667 78.384 25.1093 78.128 26.432 77.616C27.7547 77.104 28.7573 76.4 29.44 75.504C30.1227 74.5653 30.464 73.4987 30.464 72.304C30.464 70.8107 29.824 69.6373 28.544 68.784C27.264 67.888 25.1947 67.312 22.336 67.056L18.816 66.736C14.1653 66.352 10.4533 64.9013 7.68 62.384C4.90667 59.8667 3.52 56.5387 3.52 52.4C3.52 49.4133 4.224 46.832 5.632 44.656C7.08267 42.48 9.088 40.816 11.648 39.664C14.208 38.4693 17.2373 37.872 20.736 37.872C24.4053 37.872 27.5413 38.512 30.144 39.792C32.7893 41.0293 34.816 42.8 36.224 45.104C37.632 47.3653 38.336 50.032 38.336 53.104H28.096C28.096 51.952 27.8187 50.9067 27.264 49.968C26.7093 48.9867 25.8773 48.1973 24.768 47.6C23.7013 47.0027 22.3573 46.704 20.736 46.704C19.2 46.704 17.8987 46.96 16.832 47.472C15.808 47.984 15.04 48.688 14.528 49.584C14.016 50.4373 13.76 51.376 13.76 52.4C13.76 53.7227 14.2293 54.8747 15.168 55.856C16.1067 56.8373 17.6427 57.4133 19.776 57.584L23.36 57.904C26.7733 58.2027 29.7813 58.9493 32.384 60.144C34.9867 61.296 37.0133 62.896 38.464 64.944C39.9573 66.9493 40.704 69.4027 40.704 72.304C40.704 75.2907 39.9147 77.9147 38.336 80.176C36.8 82.3947 34.6027 84.1227 31.744 85.36C28.8853 86.5973 25.472 87.216 21.504 87.216ZM67.6475 87.216C64.5755 87.216 61.8448 86.7467 59.4555 85.808C57.0662 84.8267 55.0395 83.504 53.3755 81.84C51.7542 80.176 50.5168 78.2773 49.6635 76.144C48.8102 73.968 48.3835 71.6853 48.3835 69.296V67.824C48.3835 65.392 48.8102 63.088 49.6635 60.912C50.5595 58.6933 51.8395 56.752 53.5035 55.088C55.2102 53.424 57.2582 52.1227 59.6475 51.184C62.0368 50.2027 64.7035 49.712 67.6475 49.712C70.6768 49.712 73.3648 50.2027 75.7115 51.184C78.1008 52.1227 80.1275 53.424 81.7915 55.088C83.4555 56.752 84.7355 58.6933 85.6315 60.912C86.5275 63.088 86.9755 65.392 86.9755 67.824V69.296C86.9755 71.6853 86.5488 73.968 85.6955 76.144C84.8422 78.2773 83.5835 80.176 81.9195 81.84C80.2982 83.504 78.2928 84.8267 75.9035 85.808C73.5142 86.7467 70.7622 87.216 67.6475 87.216ZM67.6475 78.576C69.6528 78.576 71.3168 78.1493 72.6395 77.296C73.9622 76.4427 74.9648 75.248 75.6475 73.712C76.3728 72.176 76.7355 70.4693 76.7355 68.592C76.7355 66.5867 76.3728 64.8373 75.6475 63.344C74.9222 61.808 73.8768 60.592 72.5115 59.696C71.1888 58.8 69.5675 58.352 67.6475 58.352C65.7702 58.352 64.1488 58.8 62.7835 59.696C61.4182 60.592 60.3728 61.808 59.6475 63.344C58.9648 64.8373 58.6235 66.5867 58.6235 68.592C58.6235 70.4693 58.9648 72.176 59.6475 73.712C60.3302 75.248 61.3542 76.4427 62.7195 77.296C64.0848 78.1493 65.7275 78.576 67.6475 78.576ZM97.322 86V50.928H105.45V65.968H105.258C105.258 61.0187 106.303 57.2 108.394 54.512C110.527 51.824 113.599 50.48 117.61 50.48H118.954V59.312H116.394C113.578 59.312 111.402 60.08 109.866 61.616C108.33 63.1093 107.562 65.2853 107.562 68.144V86H97.322ZM148.393 86V75.632H146.665V64.368C146.665 62.576 146.239 61.232 145.385 60.336C144.532 59.44 143.167 58.992 141.289 58.992C140.351 58.992 139.113 59.0133 137.577 59.056C136.041 59.0987 134.463 59.1627 132.841 59.248C131.22 59.3333 129.748 59.4187 128.425 59.504V50.864C129.407 50.7787 130.559 50.6933 131.881 50.608C133.204 50.5227 134.569 50.4587 135.977 50.416C137.385 50.3733 138.708 50.352 139.945 50.352C143.529 50.352 146.537 50.864 148.969 51.888C151.444 52.912 153.322 54.4693 154.602 56.56C155.882 58.608 156.521 61.2533 156.521 64.496V86H148.393ZM137.193 86.896C134.676 86.896 132.457 86.448 130.537 85.552C128.66 84.656 127.188 83.376 126.121 81.712C125.055 80.0053 124.521 77.9787 124.521 75.632C124.521 73.072 125.183 70.9813 126.505 69.36C127.828 67.696 129.684 66.48 132.073 65.712C134.463 64.9013 137.215 64.496 140.33 64.496H147.817V70.192H140.265C138.473 70.192 137.087 70.64 136.105 71.536C135.167 72.3893 134.697 73.5627 134.697 75.056C134.697 76.464 135.167 77.616 136.105 78.512C137.087 79.3653 138.473 79.792 140.265 79.792C141.417 79.792 142.441 79.6 143.337 79.216C144.276 78.7893 145.044 78.0853 145.642 77.104C146.239 76.1227 146.58 74.7573 146.665 73.008L149.097 75.568C148.884 78 148.287 80.048 147.306 81.712C146.367 83.376 145.044 84.656 143.337 85.552C141.673 86.448 139.625 86.896 137.193 86.896Z" fill="#2A2A2A"/>
<g filter="url(#filter0_d_98_13)">
<rect x="381" y="69" width="130" height="130" fill="white"/>
<rect x="381.5" y="69.5" width="129" height="129" stroke="#ADADAD"/>
</g>
<path d="M3.429 116L6.926 106.51H8.694L12.308 116H11.294L7.927 107.134L8.46 107.407H7.095L7.654 107.134L4.417 116H3.429ZM5.301 112.984L5.626 112.087H10.033L10.371 112.984H5.301ZM18.8343 116V113.933H18.6783V111.489C18.6783 110.978 18.544 110.588 18.2753 110.319C18.0066 110.042 17.5906 109.903 17.0273 109.903C16.7673 109.903 16.503 109.907 16.2343 109.916C15.9743 109.925 15.723 109.938 15.4803 109.955C15.2463 109.964 15.0383 109.977 14.8563 109.994V109.136C15.047 109.119 15.242 109.101 15.4413 109.084C15.6406 109.067 15.8443 109.058 16.0523 109.058C16.269 109.049 16.477 109.045 16.6763 109.045C17.3783 109.045 17.9416 109.132 18.3663 109.305C18.7996 109.478 19.116 109.751 19.3153 110.124C19.5146 110.488 19.6143 110.973 19.6143 111.58V116H18.8343ZM16.5073 116.182C16.022 116.182 15.593 116.095 15.2203 115.922C14.8476 115.749 14.5573 115.497 14.3493 115.168C14.15 114.839 14.0503 114.44 14.0503 113.972C14.0503 113.513 14.1543 113.123 14.3623 112.802C14.579 112.481 14.8866 112.239 15.2853 112.074C15.6926 111.901 16.1823 111.814 16.7543 111.814H18.7693V112.555H16.6893C16.1433 112.555 15.723 112.689 15.4283 112.958C15.1423 113.218 14.9993 113.56 14.9993 113.985C14.9993 114.418 15.151 114.765 15.4543 115.025C15.7576 115.276 16.1693 115.402 16.6893 115.402C17.01 115.402 17.3176 115.346 17.6123 115.233C17.907 115.112 18.154 114.912 18.3533 114.635C18.5526 114.349 18.661 113.959 18.6783 113.465L18.9643 113.868C18.9296 114.379 18.8083 114.808 18.6003 115.155C18.3923 115.493 18.1106 115.749 17.7553 115.922C17.4 116.095 16.984 116.182 16.5073 116.182ZM27.3459 116.039V115.168H30.1279C30.6912 115.168 31.1289 115.008 31.4409 114.687C31.7615 114.358 31.9219 113.924 31.9219 113.387C31.9219 112.858 31.7659 112.434 31.4539 112.113C31.1419 111.784 30.6999 111.619 30.1279 111.619H27.3459V110.969H29.9849C30.5569 110.969 31.0639 111.051 31.5059 111.216C31.9479 111.372 32.2945 111.623 32.5459 111.97C32.7972 112.317 32.9229 112.772 32.9229 113.335V113.491C32.9229 114.002 32.8145 114.453 32.5979 114.843C32.3812 115.224 32.0562 115.519 31.6229 115.727C31.1895 115.935 30.6435 116.039 29.9849 116.039H27.3459ZM26.6049 116.039V106.471H27.5929V116.039H26.6049ZM27.3459 111.437V110.787H29.7769C30.3749 110.787 30.8169 110.627 31.1029 110.306C31.3889 109.977 31.5319 109.565 31.5319 109.071C31.5319 108.56 31.3889 108.144 31.1029 107.823C30.8169 107.502 30.3749 107.342 29.7769 107.342H27.3459V106.471H29.6079C30.5872 106.471 31.3195 106.692 31.8049 107.134C32.2902 107.576 32.5329 108.187 32.5329 108.967V109.123C32.5329 109.669 32.4115 110.115 32.1689 110.462C31.9262 110.8 31.5839 111.047 31.1419 111.203C30.7085 111.359 30.1972 111.437 29.6079 111.437H27.3459ZM39.3299 116.221C38.7233 116.221 38.1903 116.087 37.7309 115.818C37.2803 115.549 36.9249 115.172 36.6649 114.687C36.4136 114.202 36.2793 113.643 36.2619 113.01H36.5609V116H35.7809V106.51H36.7559V111.255L36.3789 112.126C36.3963 111.433 36.5349 110.848 36.7949 110.371C37.0636 109.886 37.4189 109.517 37.8609 109.266C38.3116 109.015 38.8229 108.889 39.3949 108.889C39.8976 108.889 40.3526 108.984 40.7599 109.175C41.1673 109.366 41.5139 109.626 41.7999 109.955C42.0946 110.284 42.3156 110.666 42.4629 111.099C42.6189 111.524 42.6969 111.974 42.6969 112.451V112.633C42.6969 113.101 42.6189 113.552 42.4629 113.985C42.3069 114.41 42.0816 114.791 41.7869 115.129C41.5009 115.467 41.1499 115.736 40.7339 115.935C40.3179 116.126 39.8499 116.221 39.3299 116.221ZM39.2259 115.363C39.7459 115.363 40.1923 115.237 40.5649 114.986C40.9376 114.735 41.2236 114.397 41.4229 113.972C41.6223 113.547 41.7219 113.071 41.7219 112.542C41.7219 112.005 41.6179 111.528 41.4099 111.112C41.2106 110.687 40.9203 110.354 40.5389 110.111C40.1663 109.868 39.7286 109.747 39.2259 109.747C38.7579 109.747 38.3333 109.851 37.9519 110.059C37.5706 110.267 37.2673 110.562 37.0419 110.943C36.8253 111.316 36.7169 111.758 36.7169 112.269V112.906C36.7169 113.391 36.8253 113.82 37.0419 114.193C37.2673 114.557 37.5706 114.843 37.9519 115.051C38.3333 115.259 38.7579 115.363 39.2259 115.363ZM53.2658 116.221C52.4165 116.221 51.6885 116.074 51.0818 115.779C50.4838 115.476 49.9942 115.081 49.6128 114.596C49.2402 114.111 48.9672 113.586 48.7938 113.023C48.6205 112.451 48.5338 111.896 48.5338 111.359V111.112C48.5338 110.531 48.6205 109.955 48.7938 109.383C48.9758 108.802 49.2532 108.278 49.6258 107.81C50.0072 107.342 50.4925 106.969 51.0818 106.692C51.6712 106.406 52.3688 106.263 53.1748 106.263C53.9895 106.263 54.6915 106.406 55.2808 106.692C55.8788 106.978 56.3555 107.381 56.7108 107.901C57.0662 108.412 57.2828 109.019 57.3608 109.721H56.3598C56.2905 109.158 56.1085 108.69 55.8138 108.317C55.5192 107.936 55.1422 107.65 54.6828 107.459C54.2322 107.268 53.7295 107.173 53.1748 107.173C52.5768 107.173 52.0482 107.281 51.5888 107.498C51.1382 107.706 50.7612 108.001 50.4578 108.382C50.1545 108.755 49.9248 109.188 49.7688 109.682C49.6128 110.167 49.5348 110.687 49.5348 111.242C49.5348 111.771 49.6085 112.278 49.7558 112.763C49.9118 113.248 50.1458 113.686 50.4578 114.076C50.7698 114.457 51.1598 114.761 51.6278 114.986C52.0958 115.203 52.6418 115.311 53.2658 115.311C54.1325 115.311 54.8605 115.094 55.4498 114.661C56.0392 114.219 56.4032 113.586 56.5418 112.763H57.5428C57.4475 113.413 57.2222 114.002 56.8668 114.531C56.5115 115.051 56.0305 115.463 55.4238 115.766C54.8258 116.069 54.1065 116.221 53.2658 116.221ZM62.8721 116.221C62.2914 116.221 61.7844 116.121 61.3511 115.922C60.9264 115.714 60.5711 115.437 60.2851 115.09C59.9991 114.735 59.7824 114.345 59.6351 113.92C59.4964 113.495 59.4271 113.066 59.4271 112.633V112.451C59.4271 112.009 59.4964 111.58 59.6351 111.164C59.7824 110.739 59.9991 110.358 60.2851 110.02C60.5711 109.673 60.9264 109.4 61.3511 109.201C61.7844 108.993 62.2828 108.889 62.8461 108.889C63.4181 108.889 63.9251 108.993 64.3671 109.201C64.8178 109.409 65.1818 109.704 65.4591 110.085C65.7364 110.466 65.9011 110.917 65.9531 111.437H65.0171C64.9391 110.96 64.7138 110.566 64.3411 110.254C63.9771 109.933 63.4788 109.773 62.8461 109.773C62.3001 109.773 61.8451 109.899 61.4811 110.15C61.1258 110.393 60.8571 110.726 60.6751 111.151C60.4931 111.567 60.4021 112.031 60.4021 112.542C60.4021 113.045 60.4931 113.513 60.6751 113.946C60.8571 114.371 61.1301 114.713 61.4941 114.973C61.8581 115.224 62.3174 115.35 62.8721 115.35C63.2968 115.35 63.6651 115.276 63.9771 115.129C64.2978 114.973 64.5534 114.765 64.7441 114.505C64.9434 114.245 65.0604 113.959 65.0951 113.647H66.0311C65.9964 114.167 65.8318 114.622 65.5371 115.012C65.2511 115.393 64.8784 115.692 64.4191 115.909C63.9598 116.117 63.4441 116.221 62.8721 116.221ZM73.102 116.052V115.142H75.689C76.3303 115.142 76.8893 115.038 77.366 114.83C77.8513 114.622 78.2587 114.34 78.588 113.985C78.9173 113.621 79.1643 113.205 79.329 112.737C79.4937 112.269 79.576 111.771 79.576 111.242C79.576 110.696 79.4893 110.189 79.316 109.721C79.1513 109.253 78.9043 108.841 78.575 108.486C78.2457 108.131 77.8383 107.858 77.353 107.667C76.8763 107.476 76.3217 107.381 75.689 107.381H73.102V106.471H75.585C76.4343 106.471 77.171 106.601 77.795 106.861C78.419 107.121 78.939 107.476 79.355 107.927C79.771 108.369 80.0787 108.867 80.278 109.422C80.4773 109.977 80.577 110.54 80.577 111.112V111.359C80.577 111.922 80.4773 112.481 80.278 113.036C80.0787 113.591 79.7753 114.098 79.368 114.557C78.9607 115.008 78.4407 115.372 77.808 115.649C77.184 115.918 76.443 116.052 75.585 116.052H73.102ZM72.374 116.052V106.471H73.362V116.052H72.374ZM85.958 116.221C85.4553 116.221 84.996 116.13 84.58 115.948C84.1726 115.757 83.8173 115.497 83.514 115.168C83.2193 114.83 82.9896 114.449 82.825 114.024C82.669 113.591 82.591 113.131 82.591 112.646V112.464C82.591 111.996 82.669 111.55 82.825 111.125C82.981 110.692 83.202 110.31 83.488 109.981C83.7826 109.643 84.1336 109.379 84.541 109.188C84.957 108.989 85.4206 108.889 85.932 108.889C86.5126 108.889 87.024 109.015 87.466 109.266C87.908 109.517 88.2633 109.881 88.532 110.358C88.8006 110.826 88.9436 111.402 88.961 112.087L88.532 111.281V106.51H89.507V116H88.727V112.945H89.039C89.0216 113.664 88.87 114.271 88.584 114.765C88.3066 115.25 87.9383 115.614 87.479 115.857C87.0283 116.1 86.5213 116.221 85.958 116.221ZM86.088 115.363C86.556 115.363 86.9763 115.259 87.349 115.051C87.7303 114.843 88.0293 114.548 88.246 114.167C88.4626 113.777 88.571 113.331 88.571 112.828V112.204C88.571 111.719 88.4626 111.294 88.246 110.93C88.0293 110.557 87.7303 110.267 87.349 110.059C86.9763 109.851 86.5516 109.747 86.075 109.747C85.5636 109.747 85.1173 109.873 84.736 110.124C84.3633 110.367 84.073 110.7 83.865 111.125C83.6656 111.55 83.566 112.026 83.566 112.555C83.566 113.101 83.67 113.586 83.878 114.011C84.086 114.436 84.3806 114.769 84.762 115.012C85.1433 115.246 85.5853 115.363 86.088 115.363ZM96.5789 116V106.51H97.5669V116H96.5789ZM97.3329 116V115.103H102.078V116H97.3329ZM97.3329 111.619V110.735H101.636V111.619H97.3329ZM97.3329 107.407V106.51H101.935V107.407H97.3329ZM107.562 116.221C106.972 116.221 106.461 116.121 106.028 115.922C105.594 115.714 105.239 115.441 104.962 115.103C104.684 114.756 104.476 114.371 104.338 113.946C104.208 113.521 104.143 113.084 104.143 112.633V112.451C104.143 112.009 104.208 111.576 104.338 111.151C104.476 110.726 104.684 110.345 104.962 110.007C105.239 109.669 105.586 109.4 106.002 109.201C106.426 108.993 106.92 108.889 107.484 108.889C108.203 108.889 108.801 109.049 109.278 109.37C109.763 109.691 110.127 110.102 110.37 110.605C110.612 111.099 110.734 111.632 110.734 112.204V112.711H104.585V111.957H110.058L109.811 112.334C109.811 111.823 109.72 111.376 109.538 110.995C109.364 110.605 109.104 110.302 108.758 110.085C108.42 109.86 107.995 109.747 107.484 109.747C106.946 109.747 106.5 109.873 106.145 110.124C105.789 110.375 105.521 110.709 105.339 111.125C105.165 111.541 105.079 112.013 105.079 112.542C105.079 113.062 105.165 113.539 105.339 113.972C105.521 114.397 105.794 114.735 106.158 114.986C106.53 115.237 106.998 115.363 107.562 115.363C108.16 115.363 108.645 115.229 109.018 114.96C109.39 114.683 109.62 114.358 109.707 113.985H110.617C110.53 114.444 110.348 114.843 110.071 115.181C109.793 115.51 109.442 115.766 109.018 115.948C108.593 116.13 108.108 116.221 107.562 116.221ZM117.166 116V106.51H118.154V116H117.166ZM117.894 111.619V110.722L122.093 110.709V111.606L117.894 111.619ZM117.894 107.394V106.51H122.34V107.394H117.894ZM125.064 116V108.59C125.064 107.871 125.25 107.338 125.623 106.991C125.996 106.644 126.555 106.471 127.3 106.471H128.171V107.303H127.118C126.754 107.303 126.477 107.398 126.286 107.589C126.095 107.78 126 108.048 126 108.395V116H125.064ZM124.063 109.929V109.175H128.314V109.929H124.063ZM138.446 116.221C137.666 116.221 136.973 116.091 136.366 115.831C135.768 115.571 135.266 115.216 134.858 114.765C134.451 114.306 134.139 113.781 133.922 113.192C133.714 112.594 133.61 111.966 133.61 111.307V111.073C133.61 110.466 133.71 109.877 133.909 109.305C134.117 108.733 134.416 108.217 134.806 107.758C135.196 107.299 135.682 106.935 136.262 106.666C136.843 106.397 137.502 106.263 138.238 106.263C139.01 106.263 139.694 106.41 140.292 106.705C140.89 106.991 141.371 107.394 141.735 107.914C142.108 108.434 142.325 109.036 142.385 109.721H141.384C141.315 109.166 141.129 108.698 140.825 108.317C140.531 107.936 140.158 107.65 139.707 107.459C139.257 107.268 138.767 107.173 138.238 107.173C137.684 107.173 137.181 107.273 136.73 107.472C136.28 107.671 135.898 107.953 135.586 108.317C135.274 108.681 135.032 109.11 134.858 109.604C134.694 110.089 134.611 110.622 134.611 111.203C134.611 111.818 134.698 112.382 134.871 112.893C135.045 113.396 135.296 113.829 135.625 114.193C135.955 114.557 136.353 114.839 136.821 115.038C137.298 115.237 137.84 115.337 138.446 115.337C139.192 115.337 139.846 115.194 140.409 114.908C140.981 114.613 141.423 114.228 141.735 113.751L141.345 114.973V112.165H142.281V114.531C141.874 115.06 141.345 115.476 140.695 115.779C140.045 116.074 139.296 116.221 138.446 116.221ZM138.095 112.373V111.541H143.126V112.373H138.095ZM148.158 118.691C147.837 118.691 147.512 118.674 147.183 118.639C146.862 118.613 146.555 118.578 146.26 118.535V117.703C146.572 117.746 146.897 117.781 147.235 117.807C147.582 117.842 147.907 117.859 148.21 117.859C148.869 117.859 149.393 117.772 149.783 117.599C150.173 117.426 150.45 117.148 150.615 116.767C150.788 116.394 150.875 115.9 150.875 115.285V113.907L151.239 112.945C151.222 113.604 151.083 114.171 150.823 114.648C150.563 115.116 150.212 115.476 149.77 115.727C149.328 115.978 148.825 116.104 148.262 116.104C147.768 116.104 147.317 116.009 146.91 115.818C146.511 115.627 146.169 115.367 145.883 115.038C145.597 114.7 145.376 114.319 145.22 113.894C145.064 113.469 144.986 113.023 144.986 112.555V112.373C144.986 111.914 145.064 111.476 145.22 111.06C145.376 110.635 145.597 110.263 145.883 109.942C146.169 109.613 146.516 109.357 146.923 109.175C147.339 108.984 147.798 108.889 148.301 108.889C148.908 108.889 149.436 109.023 149.887 109.292C150.338 109.561 150.689 109.933 150.94 110.41C151.2 110.887 151.339 111.446 151.356 112.087L151.044 111.918V109.123H151.811V115.246C151.811 116.069 151.69 116.732 151.447 117.235C151.204 117.738 150.814 118.106 150.277 118.34C149.748 118.574 149.042 118.691 148.158 118.691ZM148.431 115.207C148.899 115.207 149.315 115.107 149.679 114.908C150.052 114.7 150.346 114.41 150.563 114.037C150.78 113.664 150.888 113.231 150.888 112.737V112.1C150.888 111.623 150.775 111.207 150.55 110.852C150.333 110.497 150.043 110.219 149.679 110.02C149.315 109.821 148.899 109.721 148.431 109.721C147.928 109.721 147.491 109.842 147.118 110.085C146.745 110.328 146.459 110.657 146.26 111.073C146.061 111.48 145.961 111.944 145.961 112.464C145.961 112.993 146.061 113.465 146.26 113.881C146.468 114.297 146.758 114.622 147.131 114.856C147.504 115.09 147.937 115.207 148.431 115.207ZM165.335 116V106.51H166.323V116H165.335ZM158.809 116V106.51H159.797V116H158.809ZM159.576 111.736V110.852H165.556V111.736H159.576ZM169.711 116V106.51H170.686V111.879L170.4 112.1C170.4 111.459 170.491 110.9 170.673 110.423C170.864 109.946 171.146 109.578 171.518 109.318C171.9 109.049 172.376 108.915 172.948 108.915H173C173.832 108.915 174.461 109.188 174.885 109.734C175.319 110.28 175.535 111.038 175.535 112.009V116H174.573V111.801C174.573 111.186 174.404 110.7 174.066 110.345C173.728 109.99 173.273 109.812 172.701 109.812C172.086 109.812 171.596 110.011 171.232 110.41C170.868 110.8 170.686 111.316 170.686 111.957V116H169.711ZM182.545 116V106.51H183.533V116H182.545ZM187.311 116V109.123H188.273V116H187.311ZM186.206 109.903V109.123H188.273V109.903H186.206ZM187.519 107.849C187.285 107.849 187.107 107.788 186.986 107.667C186.873 107.537 186.817 107.377 186.817 107.186C186.817 106.995 186.873 106.839 186.986 106.718C187.107 106.588 187.285 106.523 187.519 106.523C187.753 106.523 187.926 106.588 188.039 106.718C188.151 106.839 188.208 106.995 188.208 107.186C188.208 107.377 188.151 107.537 188.039 107.667C187.926 107.788 187.753 107.849 187.519 107.849ZM197.648 116.221C197.024 116.221 196.47 116.095 195.984 115.844C195.499 115.584 195.118 115.207 194.84 114.713C194.572 114.219 194.437 113.612 194.437 112.893V112.555H195.425V113.062C195.425 113.773 195.625 114.327 196.023 114.726C196.431 115.116 196.972 115.311 197.648 115.311C198.324 115.311 198.866 115.116 199.273 114.726C199.681 114.327 199.884 113.773 199.884 113.062V107.147H200.872V112.893C200.872 113.612 200.734 114.219 200.456 114.713C200.188 115.207 199.811 115.584 199.325 115.844C198.84 116.095 198.281 116.221 197.648 116.221ZM195.698 107.407V106.51H200.872V107.407H195.698ZM202.806 118.639V117.768H203.586C203.924 117.768 204.179 117.668 204.353 117.469C204.535 117.278 204.626 117.001 204.626 116.637V109.123H205.562V116.455C205.562 116.992 205.488 117.421 205.341 117.742C205.202 118.063 204.977 118.292 204.665 118.431C204.353 118.57 203.937 118.639 203.417 118.639H202.806ZM203.508 109.903V109.123H205.562V109.903H203.508ZM204.808 107.732C204.574 107.732 204.396 107.671 204.275 107.55C204.162 107.42 204.106 107.26 204.106 107.069C204.106 106.878 204.162 106.722 204.275 106.601C204.396 106.471 204.574 106.406 204.808 106.406C205.042 106.406 205.215 106.471 205.328 106.601C205.44 106.722 205.497 106.878 205.497 107.069C205.497 107.26 205.44 107.42 205.328 107.55C205.215 107.671 205.042 107.732 204.808 107.732ZM218.614 116L214.48 111.515H213.258L217.717 106.51H218.861L214.753 111.099L214.662 110.384L219.849 116H218.614ZM212.647 116V106.51H213.635V116H212.647ZM226.313 116L223.544 112.776H222.426L225.689 109.123H226.729L223.804 112.386L223.869 111.853L227.457 116H226.313ZM221.633 116V106.51H222.608V116H221.633ZM4.482 140V130.51H5.47V140H4.482ZM5.21 140V139.103H9.669V140H5.21ZM11.9838 140V130.51H12.9588V140H11.9838ZM10.9828 131.303V130.51H12.9588V131.303H10.9828ZM20.0414 140V130.51H21.3284L24.3184 137.075H24.5524L27.5294 130.51H28.8424V140H27.8544V131.615L27.9324 131.628L25.0464 137.998H23.7464L20.8474 131.628L20.9514 131.615V140H20.0414ZM32.2389 140V133.11H33.0189V136.009H32.8629C32.8629 135.376 32.9496 134.83 33.1229 134.371C33.3049 133.912 33.5736 133.556 33.9289 133.305C34.2843 133.045 34.7349 132.915 35.2809 132.915H35.3199C35.8659 132.915 36.3166 133.041 36.6719 133.292C37.0273 133.543 37.2916 133.899 37.4649 134.358C37.6383 134.817 37.7249 135.368 37.7249 136.009H37.4129C37.4129 135.376 37.4996 134.83 37.6729 134.371C37.8549 133.912 38.1236 133.556 38.4789 133.305C38.8429 133.045 39.2979 132.915 39.8439 132.915H39.8829C40.4289 132.915 40.8796 133.041 41.2349 133.292C41.5989 133.543 41.8676 133.899 42.0409 134.358C42.2229 134.817 42.3139 135.368 42.3139 136.009V140H41.3389V135.788C41.3389 135.181 41.1916 134.7 40.8969 134.345C40.6023 133.99 40.1776 133.812 39.6229 133.812C39.0509 133.812 38.5959 133.998 38.2579 134.371C37.9286 134.735 37.7639 135.229 37.7639 135.853V140H36.7889V135.788C36.7889 135.181 36.6416 134.7 36.3469 134.345C36.0523 133.99 35.6276 133.812 35.0729 133.812C34.5009 133.812 34.0459 133.998 33.7079 134.371C33.3786 134.735 33.2139 135.229 33.2139 135.853V140H32.2389ZM49.299 140V130.51H50.95L56.15 139.103H56.566L56.306 139.311V130.51H57.255V140H55.591L50.391 131.407H49.975L50.235 131.199V140H49.299ZM60.646 140V133.123H61.426V136.009H61.27C61.27 135.368 61.3653 134.817 61.556 134.358C61.7466 133.899 62.0326 133.543 62.414 133.292C62.7953 133.041 63.2763 132.915 63.857 132.915H63.896C64.7626 132.915 65.4083 133.188 65.833 133.734C66.2576 134.271 66.47 135.03 66.47 136.009V140H65.508V135.801C65.508 135.203 65.3433 134.722 65.014 134.358C64.6846 133.994 64.2253 133.812 63.636 133.812C63.0293 133.812 62.5396 134.003 62.167 134.384C61.803 134.757 61.621 135.251 61.621 135.866V140H60.646ZM77.6131 140.221C76.7898 140.221 76.0748 140.074 75.4681 139.779C74.8614 139.484 74.3588 139.094 73.9601 138.609C73.5614 138.124 73.2624 137.595 73.0631 137.023C72.8638 136.451 72.7641 135.892 72.7641 135.346V135.112C72.7641 134.531 72.8638 133.955 73.0631 133.383C73.2711 132.802 73.5788 132.278 73.9861 131.81C74.3934 131.342 74.9004 130.969 75.5071 130.692C76.1138 130.406 76.8158 130.263 77.6131 130.263C78.4191 130.263 79.1211 130.406 79.7191 130.692C80.3258 130.969 80.8328 131.342 81.2401 131.81C81.6474 132.278 81.9508 132.802 82.1501 133.383C82.3581 133.955 82.4621 134.531 82.4621 135.112V135.359C82.4621 135.905 82.3624 136.464 82.1631 137.036C81.9724 137.599 81.6734 138.124 81.2661 138.609C80.8674 139.094 80.3648 139.484 79.7581 139.779C79.1514 140.074 78.4364 140.221 77.6131 140.221ZM77.6131 139.311C78.2198 139.311 78.7614 139.203 79.2381 138.986C79.7148 138.761 80.1178 138.457 80.4471 138.076C80.7764 137.686 81.0278 137.248 81.2011 136.763C81.3744 136.278 81.4611 135.771 81.4611 135.242C81.4611 134.687 81.3744 134.167 81.2011 133.682C81.0278 133.197 80.7721 132.768 80.4341 132.395C80.1048 132.014 79.7018 131.715 79.2251 131.498C78.7484 131.281 78.2111 131.173 77.6131 131.173C77.0238 131.173 76.4908 131.281 76.0141 131.498C75.5374 131.715 75.1301 132.014 74.7921 132.395C74.4628 132.768 74.2071 133.197 74.0251 133.682C73.8518 134.167 73.7651 134.687 73.7651 135.242C73.7651 135.771 73.8518 136.278 74.0251 136.763C74.1984 137.248 74.4498 137.686 74.7791 138.076C75.1084 138.457 75.5114 138.761 75.9881 138.986C76.4734 139.203 77.0151 139.311 77.6131 139.311ZM88.2365 140.221C87.6472 140.221 87.1272 140.121 86.6765 139.922C86.2345 139.714 85.8575 139.441 85.5455 139.103C85.2422 138.756 85.0082 138.371 84.8435 137.946C84.6875 137.521 84.6095 137.088 84.6095 136.646V136.464C84.6095 136.022 84.6919 135.589 84.8565 135.164C85.0212 134.731 85.2595 134.345 85.5715 134.007C85.8835 133.669 86.2605 133.4 86.7025 133.201C87.1532 132.993 87.6645 132.889 88.2365 132.889C88.8172 132.889 89.3285 132.993 89.7705 133.201C90.2212 133.4 90.6025 133.669 90.9145 134.007C91.2265 134.345 91.4605 134.731 91.6165 135.164C91.7812 135.589 91.8635 136.022 91.8635 136.464V136.646C91.8635 137.088 91.7855 137.521 91.6295 137.946C91.4735 138.371 91.2395 138.756 90.9275 139.103C90.6242 139.441 90.2472 139.714 89.7965 139.922C89.3459 140.121 88.8259 140.221 88.2365 140.221ZM88.2365 139.35C88.8085 139.35 89.2895 139.224 89.6795 138.973C90.0782 138.713 90.3815 138.375 90.5895 137.959C90.7975 137.534 90.9015 137.066 90.9015 136.555C90.9015 136.035 90.7932 135.567 90.5765 135.151C90.3685 134.726 90.0652 134.393 89.6665 134.15C89.2679 133.899 88.7912 133.773 88.2365 133.773C87.6905 133.773 87.2182 133.899 86.8195 134.15C86.4209 134.393 86.1132 134.726 85.8965 135.151C85.6885 135.567 85.5845 136.035 85.5845 136.555C85.5845 137.066 85.6885 137.534 85.8965 137.959C86.1045 138.375 86.4035 138.713 86.7935 138.973C87.1922 139.224 87.6732 139.35 88.2365 139.35ZM99.135 136.529V135.658H101.345C101.856 135.658 102.272 135.563 102.593 135.372C102.914 135.173 103.152 134.913 103.308 134.592C103.464 134.263 103.542 133.899 103.542 133.5C103.542 133.093 103.464 132.729 103.308 132.408C103.152 132.079 102.914 131.819 102.593 131.628C102.272 131.437 101.856 131.342 101.345 131.342H99.135V130.471H101.176C101.939 130.471 102.567 130.597 103.061 130.848C103.564 131.099 103.936 131.446 104.179 131.888C104.43 132.33 104.556 132.837 104.556 133.409V133.591C104.556 134.154 104.43 134.661 104.179 135.112C103.936 135.554 103.564 135.901 103.061 136.152C102.567 136.403 101.939 136.529 101.176 136.529H99.135ZM98.407 140V130.471H99.395V140H98.407ZM107.024 142.6V133.123H107.804V136.074L107.57 136.1C107.605 135.407 107.752 134.822 108.012 134.345C108.281 133.868 108.641 133.509 109.091 133.266C109.551 133.015 110.062 132.889 110.625 132.889C111.128 132.889 111.583 132.989 111.99 133.188C112.406 133.379 112.757 133.643 113.043 133.981C113.338 134.31 113.559 134.692 113.706 135.125C113.862 135.55 113.94 135.996 113.94 136.464V136.646C113.94 137.114 113.862 137.565 113.706 137.998C113.55 138.423 113.325 138.804 113.03 139.142C112.744 139.471 112.393 139.736 111.977 139.935C111.57 140.126 111.111 140.221 110.599 140.221C110.053 140.221 109.551 140.1 109.091 139.857C108.641 139.606 108.272 139.237 107.986 138.752C107.709 138.267 107.557 137.669 107.531 136.958L107.999 137.933V142.6H107.024ZM110.469 139.363C110.989 139.363 111.436 139.242 111.808 138.999C112.181 138.748 112.467 138.41 112.666 137.985C112.866 137.552 112.965 137.075 112.965 136.555C112.965 136.018 112.861 135.541 112.653 135.125C112.454 134.7 112.168 134.367 111.795 134.124C111.423 133.873 110.981 133.747 110.469 133.747C110.001 133.747 109.577 133.851 109.195 134.059C108.814 134.267 108.511 134.562 108.285 134.943C108.069 135.316 107.96 135.758 107.96 136.269V136.906C107.96 137.391 108.069 137.82 108.285 138.193C108.511 138.557 108.814 138.843 109.195 139.051C109.577 139.259 110.001 139.363 110.469 139.363ZM126.368 142.717C125.926 142.717 125.541 142.648 125.211 142.509C124.891 142.37 124.644 142.145 124.47 141.833C124.297 141.53 124.21 141.118 124.21 140.598V139.558H125.12V140.741C125.12 141.088 125.216 141.356 125.406 141.547C125.597 141.738 125.866 141.833 126.212 141.833H127.824V142.717H126.368ZM124.626 140.221C123.803 140.221 123.088 140.074 122.481 139.779C121.875 139.484 121.372 139.094 120.973 138.609C120.575 138.124 120.276 137.595 120.076 137.023C119.877 136.451 119.777 135.892 119.777 135.346V135.112C119.777 134.531 119.877 133.955 120.076 133.383C120.284 132.802 120.592 132.278 120.999 131.81C121.407 131.342 121.914 130.969 122.52 130.692C123.127 130.406 123.829 130.263 124.626 130.263C125.432 130.263 126.134 130.406 126.732 130.692C127.339 130.969 127.846 131.342 128.253 131.81C128.661 132.278 128.964 132.802 129.163 133.383C129.371 133.955 129.475 134.531 129.475 135.112V135.359C129.475 135.905 129.376 136.464 129.176 137.036C128.986 137.599 128.687 138.124 128.279 138.609C127.881 139.094 127.378 139.484 126.771 139.779C126.165 140.074 125.45 140.221 124.626 140.221ZM124.626 139.311C125.233 139.311 125.775 139.203 126.251 138.986C126.728 138.761 127.131 138.457 127.46 138.076C127.79 137.686 128.041 137.248 128.214 136.763C128.388 136.278 128.474 135.771 128.474 135.242C128.474 134.687 128.388 134.167 128.214 133.682C128.041 133.197 127.785 132.768 127.447 132.395C127.118 132.014 126.715 131.715 126.238 131.498C125.762 131.281 125.224 131.173 124.626 131.173C124.037 131.173 123.504 131.281 123.027 131.498C122.551 131.715 122.143 132.014 121.805 132.395C121.476 132.768 121.22 133.197 121.038 133.682C120.865 134.167 120.778 134.687 120.778 135.242C120.778 135.771 120.865 136.278 121.038 136.763C121.212 137.248 121.463 137.686 121.792 138.076C122.122 138.457 122.525 138.761 123.001 138.986C123.487 139.203 124.028 139.311 124.626 139.311ZM137.564 142.6V137.933L137.98 136.958C137.962 137.66 137.819 138.254 137.551 138.739C137.282 139.224 136.922 139.593 136.472 139.844C136.03 140.095 135.527 140.221 134.964 140.221C134.461 140.221 134.002 140.126 133.586 139.935C133.178 139.744 132.827 139.48 132.533 139.142C132.247 138.804 132.021 138.418 131.857 137.985C131.701 137.552 131.623 137.097 131.623 136.62V136.438C131.623 135.961 131.701 135.515 131.857 135.099C132.013 134.674 132.238 134.297 132.533 133.968C132.827 133.63 133.178 133.366 133.586 133.175C134.002 132.984 134.47 132.889 134.99 132.889C135.605 132.889 136.138 133.028 136.589 133.305C137.048 133.574 137.403 133.946 137.655 134.423C137.915 134.9 138.053 135.459 138.071 136.1L137.759 136.022V133.123H138.539V142.6H137.564ZM135.12 139.337C135.588 139.337 136.008 139.233 136.381 139.025C136.762 138.808 137.061 138.509 137.278 138.128C137.494 137.747 137.603 137.305 137.603 136.802V136.165C137.603 135.68 137.494 135.255 137.278 134.891C137.061 134.518 136.762 134.232 136.381 134.033C136.008 133.825 135.588 133.721 135.12 133.721C134.6 133.721 134.149 133.847 133.768 134.098C133.395 134.341 133.105 134.674 132.897 135.099C132.697 135.524 132.598 136 132.598 136.529C132.598 137.066 132.702 137.547 132.91 137.972C133.118 138.397 133.412 138.73 133.794 138.973C134.175 139.216 134.617 139.337 135.12 139.337ZM145.611 140V130.471H146.599V140H145.611ZM151.5 140L148.263 135.801H149.42L152.709 140H151.5ZM146.196 136.399V135.515H148.744C149.212 135.515 149.602 135.424 149.914 135.242C150.226 135.06 150.46 134.813 150.616 134.501C150.772 134.189 150.85 133.834 150.85 133.435C150.85 133.036 150.772 132.681 150.616 132.369C150.46 132.057 150.226 131.81 149.914 131.628C149.602 131.437 149.212 131.342 148.744 131.342H146.196V130.471H148.575C149.277 130.471 149.87 130.584 150.356 130.809C150.85 131.026 151.222 131.351 151.474 131.784C151.734 132.209 151.864 132.729 151.864 133.344V133.526C151.864 134.141 151.734 134.666 151.474 135.099C151.214 135.524 150.841 135.849 150.356 136.074C149.87 136.291 149.277 136.399 148.575 136.399H146.196ZM154.965 140V133.123H155.745V135.996H155.667C155.667 134.991 155.888 134.25 156.33 133.773C156.772 133.288 157.465 133.045 158.41 133.045H158.631V133.929H158.228C157.482 133.929 156.915 134.124 156.525 134.514C156.135 134.895 155.94 135.459 155.94 136.204V140H154.965ZM167.805 140.221C167.008 140.221 166.336 140.095 165.79 139.844C165.244 139.584 164.828 139.229 164.542 138.778C164.265 138.319 164.126 137.803 164.126 137.231H165.114C165.114 137.595 165.201 137.937 165.374 138.258C165.556 138.57 165.842 138.826 166.232 139.025C166.631 139.216 167.155 139.311 167.805 139.311C168.403 139.311 168.897 139.224 169.287 139.051C169.686 138.878 169.98 138.644 170.171 138.349C170.37 138.054 170.47 137.725 170.47 137.361C170.47 136.902 170.288 136.52 169.924 136.217C169.569 135.905 169.031 135.719 168.312 135.658L167.22 135.554C166.405 135.485 165.755 135.233 165.27 134.8C164.793 134.358 164.555 133.777 164.555 133.058C164.555 132.512 164.685 132.031 164.945 131.615C165.205 131.199 165.573 130.87 166.05 130.627C166.535 130.384 167.116 130.263 167.792 130.263C168.477 130.263 169.062 130.389 169.547 130.64C170.041 130.883 170.418 131.221 170.678 131.654C170.938 132.087 171.068 132.59 171.068 133.162H170.08C170.08 132.815 170.002 132.49 169.846 132.187C169.69 131.884 169.443 131.641 169.105 131.459C168.767 131.268 168.329 131.173 167.792 131.173C167.281 131.173 166.856 131.26 166.518 131.433C166.189 131.606 165.942 131.836 165.777 132.122C165.621 132.408 165.543 132.72 165.543 133.058C165.543 133.483 165.695 133.842 165.998 134.137C166.301 134.432 166.739 134.601 167.311 134.644L168.403 134.748C169.044 134.8 169.59 134.943 170.041 135.177C170.5 135.402 170.851 135.701 171.094 136.074C171.337 136.438 171.458 136.867 171.458 137.361C171.458 137.916 171.306 138.41 171.003 138.843C170.708 139.276 170.288 139.614 169.742 139.857C169.196 140.1 168.55 140.221 167.805 140.221ZM176.427 140.195C175.543 140.195 174.863 140.004 174.386 139.623C173.91 139.233 173.667 138.713 173.658 138.063H174.568C174.586 138.392 174.733 138.691 175.01 138.96C175.296 139.229 175.769 139.363 176.427 139.363C177.043 139.363 177.502 139.237 177.805 138.986C178.117 138.726 178.273 138.414 178.273 138.05C178.273 137.712 178.143 137.452 177.883 137.27C177.632 137.079 177.264 136.958 176.778 136.906L175.998 136.828C175.374 136.759 174.867 136.568 174.477 136.256C174.096 135.935 173.905 135.498 173.905 134.943C173.905 134.536 174.009 134.18 174.217 133.877C174.425 133.574 174.716 133.34 175.088 133.175C175.47 133.002 175.916 132.915 176.427 132.915C177.164 132.915 177.762 133.088 178.221 133.435C178.689 133.782 178.928 134.276 178.936 134.917H178.026C178.018 134.588 177.879 134.31 177.61 134.085C177.342 133.86 176.947 133.747 176.427 133.747C175.89 133.747 175.487 133.864 175.218 134.098C174.958 134.332 174.828 134.618 174.828 134.956C174.828 135.242 174.928 135.48 175.127 135.671C175.327 135.853 175.639 135.966 176.063 136.009L176.843 136.087C177.537 136.165 178.1 136.364 178.533 136.685C178.975 137.006 179.196 137.465 179.196 138.063C179.196 138.47 179.079 138.839 178.845 139.168C178.62 139.489 178.299 139.74 177.883 139.922C177.467 140.104 176.982 140.195 176.427 140.195ZM187.538 140V131.16H188.526V140H187.538ZM184.574 131.407V130.51H191.49V131.407H184.574ZM196.209 140.078C195.732 140.078 195.321 140.009 194.974 139.87C194.627 139.731 194.359 139.497 194.168 139.168C193.977 138.83 193.882 138.379 193.882 137.816V130.952H194.818V137.959C194.818 138.358 194.926 138.665 195.143 138.882C195.36 139.09 195.667 139.194 196.066 139.194H197.301V140.078H196.209ZM192.647 133.864V133.123H197.301V133.864H192.647ZM207.432 140.221C206.565 140.221 205.846 140.056 205.274 139.727C204.702 139.398 204.273 138.938 203.987 138.349C203.701 137.751 203.558 137.066 203.558 136.295V130.51H204.546V136.412C204.546 136.993 204.65 137.5 204.858 137.933C205.075 138.366 205.395 138.704 205.82 138.947C206.253 139.19 206.791 139.311 207.432 139.311C208.065 139.311 208.593 139.194 209.018 138.96C209.443 138.717 209.763 138.379 209.98 137.946C210.197 137.504 210.305 136.993 210.305 136.412V130.51H211.293V136.295C211.293 137.066 211.15 137.751 210.864 138.349C210.578 138.938 210.149 139.398 209.577 139.727C209.014 140.056 208.299 140.221 207.432 140.221ZM216.882 140.195C216.059 140.195 215.43 139.931 214.997 139.402C214.564 138.865 214.347 138.119 214.347 137.166V133.11H215.309V137.361C215.309 137.959 215.465 138.436 215.777 138.791C216.098 139.138 216.54 139.311 217.103 139.311C217.692 139.311 218.16 139.125 218.507 138.752C218.862 138.379 219.04 137.881 219.04 137.257V133.11H220.015V140H219.235V137.127H219.391C219.391 137.768 219.3 138.319 219.118 138.778C218.936 139.229 218.663 139.58 218.299 139.831C217.935 140.074 217.476 140.195 216.921 140.195H216.882ZM6.705 164L3.312 154.51H4.326L7.472 163.389L6.939 163.103H8.317L7.745 163.389L10.67 154.51H11.671L8.486 164H6.705ZM15.4968 164L13.0788 157.123H14.0798L16.4718 164H15.4968ZM15.7568 164V163.207H16.9918V164H15.7568ZM16.2898 164L18.3828 157.123H19.3448L17.2128 164H16.2898ZM27.2003 164L24.5743 154.51H25.5883L27.9673 163.363L27.5123 163.103H28.7733L28.2793 163.363L30.2163 154.926H31.1523L29.0203 164H27.2003ZM32.9073 164L30.5673 154.926H31.5293L33.6873 163.363L33.2063 163.103H34.4933L33.9993 163.363L36.1443 154.51H37.1323L34.7273 164H32.9073ZM41.3993 164L42.8683 157.344H44.2333L45.9363 164H45.0913L43.3883 157.383H43.7003L42.2183 164H41.3993ZM40.8403 164V163.207H42.0233V164H40.8403ZM40.6063 164L38.6173 157.123H39.5533L41.5163 164H40.6063ZM45.3123 164V163.207H46.4693V164H45.3123ZM45.8193 164L47.5353 157.123H48.4323L46.6773 164H45.8193ZM53.5484 164L57.1494 158.93V159.177L53.8864 154.51H55.0044L57.6824 158.384H57.8644L60.5814 154.51H61.6604L58.2934 159.242V158.995L61.8814 164H60.7634L57.7734 159.801H57.5914L54.6144 164H53.5484ZM63.2668 164L65.8148 160.373V160.633L63.4228 157.123H64.4888L66.3088 159.827H66.4908L68.2198 157.123H69.2208L66.9718 160.529V160.282L69.6498 164H68.5838L66.4778 161.075H66.3088L64.2678 164H63.2668ZM77.6223 160.282L74.5673 154.51H75.6073L78.2983 159.671L77.8823 159.502H79.3253L78.8963 159.671L81.4443 154.51H82.4193L79.5463 160.282H77.6223ZM78.0903 164V160.061H79.0653V164H78.0903ZM83.8463 166.678V165.807H84.7303C85.0336 165.807 85.2936 165.768 85.5103 165.69C85.727 165.621 85.909 165.495 86.0563 165.313C86.2036 165.131 86.3293 164.88 86.4333 164.559L88.7473 157.123H89.6963L87.2783 164.832C87.1396 165.274 86.949 165.629 86.7063 165.898C86.4636 166.175 86.1733 166.375 85.8353 166.496C85.4973 166.617 85.1116 166.678 84.6783 166.678H83.8463ZM86.0823 163.831V163.012H87.3173V163.831H86.0823ZM85.9653 163.831L83.4693 157.123H84.4703L86.8753 163.831H85.9653ZM95.3718 164V162.739L101.365 155.355L101.326 155.68L101.027 155.173L101.235 155.355H95.4758V154.51H102.171V155.771L96.1648 163.155L96.1908 162.791L96.5418 163.389L96.2688 163.155H102.366V164H95.3718ZM104.449 164V162.869L108.44 157.89L108.401 158.111L108.219 157.825L108.362 157.903H104.41V157.123H109.259V158.254L105.255 163.22L105.294 163.025L105.489 163.311L105.346 163.22H109.454V164H104.449ZM5.756 188V179.017L6.185 179.355H3.598V178.51H6.731V188H5.756ZM13.7954 188V186.557C13.7954 186.184 13.8474 185.868 13.9514 185.608C14.0554 185.348 14.2374 185.11 14.4974 184.893C14.7574 184.676 15.1127 184.468 15.5634 184.269L17.4224 183.398C17.873 183.19 18.2327 182.917 18.5014 182.579C18.7701 182.241 18.9044 181.799 18.9044 181.253C18.9044 180.586 18.7137 180.066 18.3324 179.693C17.9597 179.312 17.444 179.121 16.7854 179.121C16.1354 179.121 15.6154 179.312 15.2254 179.693C14.844 180.066 14.6534 180.586 14.6534 181.253H13.7044C13.7044 180.69 13.8214 180.183 14.0554 179.732C14.2894 179.281 14.636 178.926 15.0954 178.666C15.5547 178.397 16.118 178.263 16.7854 178.263C17.4614 178.263 18.0247 178.397 18.4754 178.666C18.926 178.926 19.2684 179.277 19.5024 179.719C19.7364 180.152 19.8534 180.633 19.8534 181.162V181.344C19.8534 182.02 19.6584 182.588 19.2684 183.047C18.8871 183.498 18.3844 183.87 17.7604 184.165L15.8884 185.036C15.4464 185.235 15.1474 185.443 14.9914 185.66C14.844 185.868 14.7704 186.137 14.7704 186.466V187.623L14.4844 187.155H20.0094V188H13.7954ZM28.9229 188.221C28.2296 188.221 27.6402 188.087 27.1549 187.818C26.6782 187.549 26.3142 187.185 26.0629 186.726C25.8116 186.267 25.6859 185.764 25.6859 185.218H26.6349C26.6349 185.877 26.8386 186.401 27.2459 186.791C27.6532 187.172 28.2122 187.363 28.9229 187.363C29.3822 187.363 29.7809 187.276 30.1189 187.103C30.4656 186.93 30.7299 186.683 30.9119 186.362C31.1026 186.041 31.1979 185.669 31.1979 185.244C31.1979 184.594 30.9942 184.07 30.5869 183.671C30.1796 183.272 29.6292 183.073 28.9359 183.073C28.6586 183.073 28.4202 183.108 28.2209 183.177C28.0216 183.238 27.8439 183.316 27.6879 183.411L27.1549 182.501L30.9379 179.563L30.8339 179.355H26.0629V178.51H31.7439V179.914L28.3899 182.527L27.7529 182.54C27.9089 182.471 28.0866 182.414 28.2859 182.371C28.4852 182.319 28.7149 182.293 28.9749 182.293C29.6422 182.293 30.2099 182.423 30.6779 182.683C31.1546 182.943 31.5186 183.29 31.7699 183.723C32.0212 184.156 32.1469 184.633 32.1469 185.153V185.335C32.1469 185.838 32.0212 186.31 31.7699 186.752C31.5186 187.194 31.1546 187.549 30.6779 187.818C30.2012 188.087 29.6162 188.221 28.9229 188.221ZM37.981 185.634V184.412L42.011 178.328L42.687 178.861L38.865 184.659L38.969 184.854H45.157V185.634H37.981ZM42.947 188V181.318H43.857V188H42.947ZM53.9223 188.221C53.203 188.221 52.6007 188.078 52.1153 187.792C51.63 187.497 51.2617 187.112 51.0103 186.635C50.759 186.158 50.6333 185.647 50.6333 185.101H51.5823C51.5823 185.534 51.6733 185.92 51.8553 186.258C52.046 186.596 52.3147 186.865 52.6613 187.064C53.008 187.263 53.4283 187.363 53.9223 187.363C54.4163 187.363 54.8367 187.268 55.1833 187.077C55.53 186.878 55.7943 186.609 55.9763 186.271C56.167 185.924 56.2623 185.534 56.2623 185.101C56.2623 184.676 56.1713 184.291 55.9893 183.944C55.8073 183.597 55.5387 183.324 55.1833 183.125C54.8367 182.917 54.4163 182.813 53.9223 182.813C53.5757 182.813 53.2333 182.874 52.8953 182.995C52.5573 183.108 52.2757 183.277 52.0503 183.502H51.1533L51.6473 178.51H56.3663V179.355H52.1803L52.4533 179.017L52.0633 182.917L51.7643 182.852C52.033 182.583 52.3493 182.371 52.7133 182.215C53.0773 182.059 53.4933 181.981 53.9613 181.981C54.672 181.981 55.27 182.128 55.7553 182.423C56.2407 182.718 56.6047 183.099 56.8473 183.567C57.0987 184.026 57.2243 184.512 57.2243 185.023V185.192C57.2243 185.703 57.0987 186.193 56.8473 186.661C56.596 187.12 56.2233 187.497 55.7293 187.792C55.244 188.078 54.6417 188.221 53.9223 188.221ZM66.6959 188.247C66.0633 188.247 65.5259 188.139 65.0839 187.922C64.6419 187.697 64.2823 187.385 64.0049 186.986C63.7363 186.587 63.5369 186.115 63.4069 185.569C63.2769 185.014 63.2119 184.412 63.2119 183.762V183.216C63.2119 181.673 63.5716 180.495 64.2909 179.68C65.0103 178.857 66.0849 178.445 67.5149 178.445C67.8096 178.445 68.0739 178.454 68.3079 178.471C68.5419 178.488 68.7933 178.514 69.0619 178.549V179.394C68.7933 179.351 68.5333 179.32 68.2819 179.303C68.0306 179.286 67.7576 179.277 67.4629 179.277C66.6483 179.277 65.9939 179.437 65.4999 179.758C65.0059 180.07 64.6463 180.525 64.4209 181.123C64.2043 181.721 64.0959 182.445 64.0959 183.294V184.217L63.8359 184.984C63.8446 184.325 63.9703 183.766 64.2129 183.307C64.4643 182.848 64.8153 182.497 65.2659 182.254C65.7166 182.011 66.2453 181.89 66.8519 181.89C67.5279 181.89 68.0999 182.029 68.5679 182.306C69.0359 182.583 69.3869 182.96 69.6209 183.437C69.8636 183.914 69.9849 184.447 69.9849 185.036C69.9849 185.634 69.8593 186.176 69.6079 186.661C69.3653 187.146 69.0013 187.532 68.5159 187.818C68.0306 188.104 67.4239 188.247 66.6959 188.247ZM66.6959 187.389C67.2159 187.389 67.6493 187.285 67.9959 187.077C68.3513 186.869 68.6156 186.587 68.7889 186.232C68.9623 185.877 69.0489 185.478 69.0489 185.036C69.0489 184.594 68.9623 184.2 68.7889 183.853C68.6243 183.498 68.3686 183.22 68.0219 183.021C67.6839 182.813 67.2636 182.709 66.7609 182.709C66.2669 182.709 65.8336 182.804 65.4609 182.995C65.0969 183.186 64.8109 183.459 64.6029 183.814C64.4036 184.161 64.3039 184.572 64.3039 185.049C64.3039 185.456 64.3906 185.838 64.5639 186.193C64.7373 186.548 65.0016 186.839 65.3569 187.064C65.7123 187.281 66.1586 187.389 66.6959 187.389ZM77.014 188L81.018 179.485L80.94 179.355H75.74V178.51H81.889V179.719L78.028 188H77.014ZM75.74 180.941V178.51H76.572V180.941H75.74ZM90.8177 188.221C90.1417 188.221 89.5481 188.1 89.0367 187.857C88.5254 187.606 88.1267 187.268 87.8407 186.843C87.5634 186.418 87.4247 185.933 87.4247 185.387C87.4247 184.98 87.5071 184.616 87.6717 184.295C87.8451 183.966 88.0704 183.693 88.3477 183.476C88.6251 183.251 88.9284 183.086 89.2577 182.982V182.852C88.9891 182.748 88.7421 182.605 88.5167 182.423C88.2914 182.232 88.1051 182.003 87.9577 181.734C87.8191 181.465 87.7497 181.149 87.7497 180.785C87.7497 180.265 87.8841 179.819 88.1527 179.446C88.4301 179.073 88.7984 178.787 89.2577 178.588C89.7257 178.38 90.2457 178.276 90.8177 178.276C91.4071 178.276 91.9314 178.38 92.3907 178.588C92.8501 178.787 93.2141 179.073 93.4827 179.446C93.7514 179.819 93.8857 180.265 93.8857 180.785C93.8857 181.149 93.8164 181.465 93.6777 181.734C93.5477 182.003 93.3657 182.232 93.1317 182.423C92.9064 182.605 92.6594 182.748 92.3907 182.852V182.982C92.7287 183.086 93.0364 183.251 93.3137 183.476C93.5911 183.701 93.8121 183.974 93.9767 184.295C94.1414 184.616 94.2237 184.98 94.2237 185.387C94.2237 185.933 94.0807 186.418 93.7947 186.843C93.5174 187.268 93.1231 187.606 92.6117 187.857C92.1091 188.1 91.5111 188.221 90.8177 188.221ZM90.8177 187.389C91.3377 187.389 91.7797 187.302 92.1437 187.129C92.5077 186.956 92.7851 186.717 92.9757 186.414C93.1751 186.102 93.2747 185.747 93.2747 185.348C93.2747 184.949 93.1794 184.598 92.9887 184.295C92.7981 183.992 92.5207 183.753 92.1567 183.58C91.7927 183.407 91.3464 183.32 90.8177 183.32C90.3064 183.32 89.8687 183.407 89.5047 183.58C89.1407 183.753 88.8634 183.992 88.6727 184.295C88.4821 184.598 88.3867 184.949 88.3867 185.348C88.3867 185.747 88.4821 186.102 88.6727 186.414C88.8634 186.717 89.1407 186.956 89.5047 187.129C89.8687 187.302 90.3064 187.389 90.8177 187.389ZM90.8177 182.54C91.4591 182.54 91.9704 182.397 92.3517 182.111C92.7417 181.816 92.9367 181.387 92.9367 180.824C92.9367 180.261 92.7417 179.836 92.3517 179.55C91.9704 179.264 91.4591 179.121 90.8177 179.121C90.1851 179.121 89.6737 179.264 89.2837 179.55C88.9024 179.836 88.7117 180.261 88.7117 180.824C88.7117 181.387 88.9067 181.816 89.2967 182.111C89.6867 182.397 90.1937 182.54 90.8177 182.54ZM103.263 178.263C103.895 178.263 104.433 178.376 104.875 178.601C105.317 178.818 105.672 179.125 105.941 179.524C106.218 179.923 106.422 180.399 106.552 180.954C106.682 181.5 106.747 182.098 106.747 182.748V183.294C106.747 184.837 106.387 186.02 105.668 186.843C104.948 187.658 103.874 188.065 102.444 188.065C102.149 188.065 101.885 188.056 101.651 188.039C101.417 188.022 101.165 187.996 100.897 187.961V187.116C101.165 187.159 101.425 187.19 101.677 187.207C101.928 187.224 102.201 187.233 102.496 187.233C103.31 187.233 103.965 187.077 104.459 186.765C104.953 186.444 105.308 185.985 105.525 185.387C105.75 184.789 105.863 184.065 105.863 183.216V182.293L106.123 181.526C106.114 182.185 105.984 182.744 105.733 183.203C105.49 183.662 105.143 184.013 104.693 184.256C104.242 184.499 103.713 184.62 103.107 184.62C102.431 184.62 101.859 184.481 101.391 184.204C100.923 183.927 100.567 183.55 100.325 183.073C100.091 182.596 99.9737 182.063 99.9737 181.474C99.9737 180.876 100.095 180.334 100.338 179.849C100.589 179.364 100.957 178.978 101.443 178.692C101.928 178.406 102.535 178.263 103.263 178.263ZM103.263 179.121C102.743 179.121 102.305 179.225 101.95 179.433C101.603 179.641 101.343 179.923 101.17 180.278C100.996 180.633 100.91 181.032 100.91 181.474C100.91 181.916 100.992 182.315 101.157 182.67C101.33 183.017 101.586 183.294 101.924 183.502C102.27 183.701 102.695 183.801 103.198 183.801C103.692 183.801 104.121 183.706 104.485 183.515C104.857 183.324 105.143 183.056 105.343 182.709C105.551 182.354 105.655 181.938 105.655 181.461C105.655 181.054 105.568 180.672 105.395 180.317C105.221 179.962 104.957 179.676 104.602 179.459C104.246 179.234 103.8 179.121 103.263 179.121ZM116.87 188.221C116.202 188.221 115.63 188.104 115.154 187.87C114.677 187.636 114.287 187.311 113.984 186.895C113.68 186.47 113.455 185.976 113.308 185.413C113.169 184.841 113.1 184.226 113.1 183.567V182.956C113.1 182.029 113.234 181.214 113.503 180.512C113.78 179.81 114.196 179.26 114.751 178.861C115.314 178.462 116.02 178.263 116.87 178.263C117.719 178.263 118.421 178.462 118.976 178.861C119.53 179.26 119.942 179.81 120.211 180.512C120.488 181.214 120.627 182.029 120.627 182.956V183.567C120.627 184.226 120.553 184.841 120.406 185.413C120.267 185.976 120.046 186.47 119.743 186.895C119.439 187.311 119.049 187.636 118.573 187.87C118.096 188.104 117.528 188.221 116.87 188.221ZM116.87 187.337C117.806 187.337 118.499 187.008 118.95 186.349C119.409 185.69 119.639 184.663 119.639 183.268C119.639 181.812 119.405 180.763 118.937 180.122C118.477 179.472 117.788 179.147 116.87 179.147C115.942 179.147 115.245 179.472 114.777 180.122C114.317 180.763 114.088 181.803 114.088 183.242C114.088 184.646 114.313 185.682 114.764 186.349C115.223 187.008 115.925 187.337 116.87 187.337Z" fill="#7C7C7C"/>
<g filter="url(#filter1_d_98_13)">
<rect x="266" y="117" width="129" height="130" fill="#F8F8F8"/>
<rect x="266.5" y="117.5" width="128" height="129" stroke="#2A2A2A"/>
</g>
<g filter="url(#filter2_d_98_13)">
<rect x="156" y="155" width="130" height="130" fill="#2A2A2A"/>
</g>
<path d="M185.08 228L186.888 216.32H188.264L186.456 228H185.08ZM188.824 228L190.632 216.32H192.008L190.2 228H188.824ZM183.576 224.656V223.536H192.92V224.656H183.576ZM184.152 220.784V219.664H193.496V220.784H184.152ZM196.094 228V226.08C196.094 225.611 196.158 225.211 196.286 224.88C196.425 224.549 196.659 224.251 196.99 223.984C197.321 223.707 197.769 223.44 198.334 223.184L200.526 222.176C201.059 221.931 201.481 221.616 201.79 221.232C202.099 220.837 202.254 220.331 202.254 219.712C202.254 218.965 202.046 218.384 201.63 217.968C201.214 217.552 200.627 217.344 199.87 217.344C199.123 217.344 198.537 217.552 198.11 217.968C197.683 218.384 197.47 218.965 197.47 219.712H195.966C195.966 219.04 196.105 218.421 196.382 217.856C196.67 217.291 197.102 216.843 197.678 216.512C198.254 216.171 198.985 216 199.87 216C200.755 216 201.481 216.171 202.046 216.512C202.622 216.843 203.049 217.28 203.326 217.824C203.614 218.368 203.758 218.96 203.758 219.6V219.824C203.758 220.667 203.513 221.376 203.022 221.952C202.542 222.528 201.891 223.003 201.07 223.376L198.878 224.384C198.387 224.608 198.057 224.832 197.886 225.056C197.715 225.28 197.63 225.579 197.63 225.952V227.424L197.214 226.688H203.902V228H196.094ZM206.017 228L210.225 216.32H212.881L217.217 228H215.601L211.681 217.344L212.449 217.728H210.561L211.377 217.344L207.585 228H206.017ZM208.529 224.512L209.057 223.104H214.097L214.625 224.512H208.529ZM219.679 228V226.08C219.679 225.611 219.743 225.211 219.871 224.88C220.009 224.549 220.244 224.251 220.575 223.984C220.905 223.707 221.353 223.44 221.919 223.184L224.111 222.176C224.644 221.931 225.065 221.616 225.375 221.232C225.684 220.837 225.839 220.331 225.839 219.712C225.839 218.965 225.631 218.384 225.215 217.968C224.799 217.552 224.212 217.344 223.455 217.344C222.708 217.344 222.121 217.552 221.695 217.968C221.268 218.384 221.055 218.965 221.055 219.712H219.551C219.551 219.04 219.689 218.421 219.967 217.856C220.255 217.291 220.687 216.843 221.263 216.512C221.839 216.171 222.569 216 223.455 216C224.34 216 225.065 216.171 225.631 216.512C226.207 216.843 226.633 217.28 226.911 217.824C227.199 218.368 227.343 218.96 227.343 219.6V219.824C227.343 220.667 227.097 221.376 226.607 221.952C226.127 222.528 225.476 223.003 224.655 223.376L222.463 224.384C221.972 224.608 221.641 224.832 221.471 225.056C221.3 225.28 221.215 225.579 221.215 225.952V227.424L220.799 226.688H227.487V228H219.679ZM229.601 228L233.809 216.32H236.465L240.801 228H239.185L235.265 217.344L236.033 217.728H234.145L234.961 217.344L231.169 228H229.601ZM232.113 224.512L232.641 223.104H237.681L238.209 224.512H232.113ZM243.263 228V226.08C243.263 225.611 243.327 225.211 243.455 224.88C243.594 224.549 243.828 224.251 244.159 223.984C244.49 223.707 244.938 223.44 245.503 223.184L247.695 222.176C248.228 221.931 248.65 221.616 248.959 221.232C249.268 220.837 249.423 220.331 249.423 219.712C249.423 218.965 249.215 218.384 248.799 217.968C248.383 217.552 247.796 217.344 247.039 217.344C246.292 217.344 245.706 217.552 245.279 217.968C244.852 218.384 244.639 218.965 244.639 219.712H243.135C243.135 219.04 243.274 218.421 243.551 217.856C243.839 217.291 244.271 216.843 244.847 216.512C245.423 216.171 246.154 216 247.039 216C247.924 216 248.65 216.171 249.215 216.512C249.791 216.843 250.218 217.28 250.495 217.824C250.783 218.368 250.927 218.96 250.927 219.6V219.824C250.927 220.667 250.682 221.376 250.191 221.952C249.711 222.528 249.06 223.003 248.239 223.376L246.047 224.384C245.556 224.608 245.226 224.832 245.055 225.056C244.884 225.28 244.799 225.579 244.799 225.952V227.424L244.383 226.688H251.071V228H243.263ZM253.186 228L257.394 216.32H260.05L264.386 228H262.77L258.85 217.344L259.618 217.728H257.73L258.546 217.344L254.754 228H253.186ZM255.698 224.512L256.226 223.104H261.266L261.794 224.512H255.698Z" fill="white"/>
<path d="M299.08 188L300.888 176.32H302.264L300.456 188H299.08ZM302.824 188L304.632 176.32H306.008L304.2 188H302.824ZM297.576 184.656V183.536H306.92V184.656H297.576ZM298.152 180.784V179.664H307.496V180.784H298.152ZM310.574 188V176.32H312.142V188H310.574ZM311.822 182.8V181.392L316.83 181.376V182.784L311.822 182.8ZM311.822 177.728V176.32H317.102V177.728H311.822ZM323.719 188.288C322.887 188.288 322.146 188.139 321.495 187.84C320.855 187.541 320.349 187.125 319.975 186.592C319.613 186.059 319.431 185.44 319.431 184.736C319.431 184.267 319.522 183.845 319.703 183.472C319.885 183.088 320.135 182.757 320.455 182.48C320.775 182.203 321.138 181.989 321.543 181.84V181.68C321.223 181.541 320.93 181.355 320.663 181.12C320.407 180.885 320.199 180.608 320.039 180.288C319.89 179.968 319.815 179.605 319.815 179.2C319.815 178.528 319.991 177.957 320.343 177.488C320.706 177.019 321.181 176.661 321.767 176.416C322.365 176.16 323.015 176.032 323.719 176.032C324.434 176.032 325.085 176.16 325.671 176.416C326.269 176.661 326.743 177.019 327.095 177.488C327.447 177.957 327.623 178.528 327.623 179.2C327.623 179.605 327.549 179.968 327.399 180.288C327.25 180.608 327.042 180.885 326.775 181.12C326.519 181.355 326.226 181.541 325.895 181.68V181.84C326.311 181.989 326.679 182.208 326.999 182.496C327.319 182.773 327.57 183.104 327.751 183.488C327.933 183.861 328.023 184.277 328.023 184.736C328.023 185.44 327.837 186.059 327.463 186.592C327.101 187.125 326.594 187.541 325.943 187.84C325.303 188.139 324.562 188.288 323.719 188.288ZM323.719 186.976C324.306 186.976 324.807 186.885 325.223 186.704C325.639 186.512 325.959 186.245 326.183 185.904C326.407 185.552 326.519 185.141 326.519 184.672C326.519 184.203 326.407 183.797 326.183 183.456C325.97 183.115 325.655 182.853 325.239 182.672C324.823 182.48 324.317 182.384 323.719 182.384C323.133 182.384 322.631 182.48 322.215 182.672C321.799 182.853 321.479 183.115 321.255 183.456C321.042 183.797 320.935 184.203 320.935 184.672C320.935 185.141 321.042 185.552 321.255 185.904C321.479 186.245 321.799 186.512 322.215 186.704C322.631 186.885 323.133 186.976 323.719 186.976ZM323.719 181.168C324.445 181.168 325.026 181.013 325.463 180.704C325.901 180.384 326.119 179.899 326.119 179.248C326.119 178.587 325.895 178.107 325.447 177.808C325.01 177.499 324.434 177.344 323.719 177.344C323.005 177.344 322.423 177.499 321.975 177.808C321.538 178.117 321.319 178.597 321.319 179.248C321.319 179.899 321.538 180.384 321.975 180.704C322.423 181.013 323.005 181.168 323.719 181.168ZM331.315 188V176.32H332.883V188H331.315ZM332.563 182.8V181.392L337.571 181.376V182.784L332.563 182.8ZM332.563 177.728V176.32H337.843V177.728H332.563ZM344.46 188.288C343.628 188.288 342.887 188.139 342.236 187.84C341.596 187.541 341.089 187.125 340.716 186.592C340.353 186.059 340.172 185.44 340.172 184.736C340.172 184.267 340.263 183.845 340.444 183.472C340.625 183.088 340.876 182.757 341.196 182.48C341.516 182.203 341.879 181.989 342.284 181.84V181.68C341.964 181.541 341.671 181.355 341.404 181.12C341.148 180.885 340.94 180.608 340.78 180.288C340.631 179.968 340.556 179.605 340.556 179.2C340.556 178.528 340.732 177.957 341.084 177.488C341.447 177.019 341.921 176.661 342.508 176.416C343.105 176.16 343.756 176.032 344.46 176.032C345.175 176.032 345.825 176.16 346.412 176.416C347.009 176.661 347.484 177.019 347.836 177.488C348.188 177.957 348.364 178.528 348.364 179.2C348.364 179.605 348.289 179.968 348.14 180.288C347.991 180.608 347.783 180.885 347.516 181.12C347.26 181.355 346.967 181.541 346.636 181.68V181.84C347.052 181.989 347.42 182.208 347.74 182.496C348.06 182.773 348.311 183.104 348.492 183.488C348.673 183.861 348.764 184.277 348.764 184.736C348.764 185.44 348.577 186.059 348.204 186.592C347.841 187.125 347.335 187.541 346.684 187.84C346.044 188.139 345.303 188.288 344.46 188.288ZM344.46 186.976C345.047 186.976 345.548 186.885 345.964 186.704C346.38 186.512 346.7 186.245 346.924 185.904C347.148 185.552 347.26 185.141 347.26 184.672C347.26 184.203 347.148 183.797 346.924 183.456C346.711 183.115 346.396 182.853 345.98 182.672C345.564 182.48 345.057 182.384 344.46 182.384C343.873 182.384 343.372 182.48 342.956 182.672C342.54 182.853 342.22 183.115 341.996 183.456C341.783 183.797 341.676 184.203 341.676 184.672C341.676 185.141 341.783 185.552 341.996 185.904C342.22 186.245 342.54 186.512 342.956 186.704C343.372 186.885 343.873 186.976 344.46 186.976ZM344.46 181.168C345.185 181.168 345.767 181.013 346.204 180.704C346.641 180.384 346.86 179.899 346.86 179.248C346.86 178.587 346.636 178.107 346.188 177.808C345.751 177.499 345.175 177.344 344.46 177.344C343.745 177.344 343.164 177.499 342.716 177.808C342.279 178.117 342.06 178.597 342.06 179.248C342.06 179.899 342.279 180.384 342.716 180.704C343.164 181.013 343.745 181.168 344.46 181.168ZM352.055 188V176.32H353.623V188H352.055ZM353.303 182.8V181.392L358.311 181.376V182.784L353.303 182.8ZM353.303 177.728V176.32H358.583V177.728H353.303ZM365.2 188.288C364.368 188.288 363.627 188.139 362.976 187.84C362.336 187.541 361.83 187.125 361.456 186.592C361.094 186.059 360.912 185.44 360.912 184.736C360.912 184.267 361.003 183.845 361.184 183.472C361.366 183.088 361.616 182.757 361.936 182.48C362.256 182.203 362.619 181.989 363.024 181.84V181.68C362.704 181.541 362.411 181.355 362.144 181.12C361.888 180.885 361.68 180.608 361.52 180.288C361.371 179.968 361.296 179.605 361.296 179.2C361.296 178.528 361.472 177.957 361.824 177.488C362.187 177.019 362.662 176.661 363.248 176.416C363.846 176.16 364.496 176.032 365.2 176.032C365.915 176.032 366.566 176.16 367.152 176.416C367.75 176.661 368.224 177.019 368.576 177.488C368.928 177.957 369.104 178.528 369.104 179.2C369.104 179.605 369.03 179.968 368.88 180.288C368.731 180.608 368.523 180.885 368.256 181.12C368 181.355 367.707 181.541 367.376 181.68V181.84C367.792 181.989 368.16 182.208 368.48 182.496C368.8 182.773 369.051 183.104 369.233 183.488C369.414 183.861 369.504 184.277 369.504 184.736C369.504 185.44 369.318 186.059 368.944 186.592C368.582 187.125 368.075 187.541 367.424 187.84C366.784 188.139 366.043 188.288 365.2 188.288ZM365.2 186.976C365.787 186.976 366.288 186.885 366.704 186.704C367.12 186.512 367.44 186.245 367.664 185.904C367.888 185.552 368 185.141 368 184.672C368 184.203 367.888 183.797 367.664 183.456C367.451 183.115 367.136 182.853 366.72 182.672C366.304 182.48 365.798 182.384 365.2 182.384C364.614 182.384 364.112 182.48 363.696 182.672C363.28 182.853 362.96 183.115 362.736 183.456C362.523 183.797 362.416 184.203 362.416 184.672C362.416 185.141 362.523 185.552 362.736 185.904C362.96 186.245 363.28 186.512 363.696 186.704C364.112 186.885 364.614 186.976 365.2 186.976ZM365.2 181.168C365.926 181.168 366.507 181.013 366.944 180.704C367.382 180.384 367.6 179.899 367.6 179.248C367.6 178.587 367.376 178.107 366.928 177.808C366.491 177.499 365.915 177.344 365.2 177.344C364.486 177.344 363.904 177.499 363.456 177.808C363.019 178.117 362.8 178.597 362.8 179.248C362.8 179.899 363.019 180.384 363.456 180.704C363.904 181.013 364.486 181.168 365.2 181.168Z" fill="black"/>
<path d="M411.08 145L412.888 133.32H414.264L412.456 145H411.08ZM414.824 145L416.632 133.32H418.008L416.2 145H414.824ZM409.576 141.656V140.536H418.92V141.656H409.576ZM410.152 137.784V136.664H419.496V137.784H410.152ZM422.574 145V133.32H424.142V145H422.574ZM423.822 139.8V138.392L428.83 138.376V139.784L423.822 139.8ZM423.822 134.728V133.32H429.102V134.728H423.822ZM432.327 145V133.32H433.895V145H432.327ZM433.575 139.8V138.392L438.583 138.376V139.784L433.575 139.8ZM433.575 134.728V133.32H438.855V134.728H433.575ZM442.08 145V133.32H443.648V145H442.08ZM443.328 139.8V138.392L448.336 138.376V139.784L443.328 139.8ZM443.328 134.728V133.32H448.608V134.728H443.328ZM451.834 145V133.32H453.402V145H451.834ZM453.082 139.8V138.392L458.09 138.376V139.784L453.082 139.8ZM453.082 134.728V133.32H458.362V134.728H453.082ZM461.587 145V133.32H463.155V145H461.587ZM462.835 139.8V138.392L467.843 138.376V139.784L462.835 139.8ZM462.835 134.728V133.32H468.115V134.728H462.835ZM471.34 145V133.32H472.908V145H471.34ZM472.588 139.8V138.392L477.596 138.376V139.784L472.588 139.8ZM472.588 134.728V133.32H477.868V134.728H472.588Z" fill="black"/>
<defs>
<filter id="filter0_d_98_13" x="381" y="69" width="138" height="138" filterUnits="userSpaceOnUse" color-interpolation-filters="sRGB">
<feFlood flood-opacity="0" result="BackgroundImageFix"/>
<feColorMatrix in="SourceAlpha" type="matrix" values="0 0 0 0 0 0 0 0 0 0 0 0 0 0 0 0 0 0 127 0" result="hardAlpha"/>
<feOffset dx="4" dy="4"/>
<feGaussianBlur stdDeviation="2"/>
<feComposite in2="hardAlpha" operator="out"/>
<feColorMatrix type="matrix" values="0 0 0 0 0 0 0 0 0 0 0 0 0 0 0 0 0 0 0.05 0"/>
<feBlend mode="normal" in2="BackgroundImageFix" result="effect1_dropShadow_98_13"/>
<feBlend mode="normal" in="SourceGraphic" in2="effect1_dropShadow_98_13" result="shape"/>
</filter>
<filter id="filter1_d_98_13" x="266" y="117" width="137" height="138" filterUnits="userSpaceOnUse" color-interpolation-filters="sRGB">
<feFlood flood-opacity="0" result="BackgroundImageFix"/>
<feColorMatrix in="SourceAlpha" type="matrix" values="0 0 0 0 0 0 0 0 0 0 0 0 0 0 0 0 0 0 127 0" result="hardAlpha"/>
<feOffset dx="4" dy="4"/>
<feGaussianBlur stdDeviation="2"/>
<feComposite in2="hardAlpha" operator="out"/>
<feColorMatrix type="matrix" values="0 0 0 0 0 0 0 0 0 0 0 0 0 0 0 0 0 0 0.05 0"/>
<feBlend mode="normal" in2="BackgroundImageFix" result="effect1_dropShadow_98_13"/>
<feBlend mode="normal" in="SourceGraphic" in2="effect1_dropShadow_98_13" result="shape"/>
</filter>
<filter id="filter2_d_98_13" x="156" y="155" width="138" height="138" filterUnits="userSpaceOnUse" color-interpolation-filters="sRGB">
<feFlood flood-opacity="0" result="BackgroundImageFix"/>
<feColorMatrix in="SourceAlpha" type="matrix" values="0 0 0 0 0 0 0 0 0 0 0 0 0 0 0 0 0 0 127 0" result="hardAlpha"/>
<feOffset dx="4" dy="4"/>
<feGaussianBlur stdDeviation="2"/>
<feComposite in2="hardAlpha" operator="out"/>
<feColorMatrix type="matrix" values="0 0 0 0 0 0 0 0 0 0 0 0 0 0 0 0 0 0 0.05 0"/>
<feBlend mode="normal" in2="BackgroundImageFix" result="effect1_dropShadow_98_13"/>
<feBlend mode="normal" in="SourceGraphic" in2="effect1_dropShadow_98_13" result="shape"/>
</filter>
</defs>
</svg>
