<svg width="141" height="50" viewBox="0 0 141 50" fill="none" xmlns="http://www.w3.org/2000/svg">
<path d="M141 14.0496H0V39.6694H141V14.0496Z" fill="#E5FE9E"/>
<path d="M7.85964 22.9355C5.93443 22.9355 4.36648 22.4793 3.15578 21.5669C1.96493 20.6347 1.36951 19.395 1.36951 17.8479C1.36951 17.5504 1.37943 17.3322 1.39928 17.1934H4.07869C4.01915 18.1653 4.31686 18.9983 4.97183 19.6925C5.6268 20.3868 6.6291 20.7339 7.97873 20.7339C9.32836 20.7339 10.4001 20.4264 11.194 19.8116C11.9879 19.1967 12.3849 18.3339 12.3849 17.2231C12.3849 16.5487 12.1864 15.9835 11.7894 15.5273C11.4123 15.0512 10.936 14.6645 10.3604 14.3669C9.8047 14.0496 9.04057 13.7025 8.06804 13.3256C6.87719 12.8496 5.91459 12.4033 5.18023 11.9868C4.46572 11.5702 3.86037 11.0049 3.36418 10.2909C2.86799 9.57685 2.63975 8.67437 2.67944 7.58346C2.67944 6.43305 2.98708 5.41156 3.60235 4.519C4.21762 3.62643 5.06114 2.94214 6.13291 2.4661C7.22452 1.97024 8.46499 1.7223 9.85431 1.7223C11.2039 1.7223 12.365 1.9504 13.3376 2.4066C14.3299 2.8628 15.0742 3.49751 15.5704 4.31073C16.0666 5.12395 16.2849 6.03635 16.2254 7.04792H13.3971C13.4368 6.53222 13.3177 6.03635 13.0398 5.56032C12.7818 5.08429 12.365 4.69751 11.7894 4.39999C11.2337 4.10247 10.5391 3.95371 9.70546 3.95371C8.41537 3.95371 7.37338 4.26115 6.57948 4.87602C5.80542 5.47106 5.4184 6.2942 5.4184 7.34544C5.4184 7.96032 5.59702 8.49586 5.95428 8.95205C6.33138 9.38842 6.7978 9.76528 7.35353 10.0826C7.90926 10.3802 8.67339 10.7372 9.64592 11.1537C10.8169 11.6496 11.7696 12.1157 12.504 12.5521C13.2582 12.9686 13.8933 13.5339 14.4093 14.2479C14.9254 14.962 15.1834 15.8545 15.1834 16.9256C15.1834 18.076 14.8857 19.1074 14.2902 20.0198C13.6948 20.9124 12.8414 21.6264 11.7299 22.162C10.6184 22.6777 9.32836 22.9355 7.85964 22.9355ZM18.5187 14.5157C18.8164 12.8496 19.4118 11.3917 20.305 10.1421C21.218 8.87272 22.3195 7.8909 23.6096 7.19668C24.9195 6.50247 26.3088 6.15536 27.7776 6.15536C29.2066 6.15536 30.3875 6.4628 31.3203 7.07767C32.2532 7.69255 32.8982 8.4661 33.2555 9.39833L33.7914 6.42313H36.5303L33.6425 22.7273H30.9035L31.4692 19.6925C30.7547 20.6446 29.8119 21.438 28.6409 22.0727C27.4699 22.6876 26.1798 22.995 24.7706 22.995C23.5004 22.995 22.379 22.7273 21.4065 22.1917C20.434 21.6364 19.6798 20.8529 19.1439 19.8413C18.608 18.8297 18.3401 17.6595 18.3401 16.3306C18.3401 15.7355 18.3996 15.1306 18.5187 14.5157ZM32.3623 14.5454C32.4417 14.1289 32.4814 13.6826 32.4814 13.2066C32.4814 11.7587 32.0448 10.6182 31.1715 9.78511C30.318 8.93222 29.2264 8.50577 27.8966 8.50577C26.8844 8.50577 25.9119 8.74379 24.979 9.21982C24.0661 9.69586 23.2821 10.3901 22.6271 11.3025C21.9722 12.2149 21.5355 13.2859 21.3172 14.5157C21.2378 14.9322 21.1981 15.3884 21.1981 15.8843C21.1981 17.3521 21.6248 18.5124 22.4783 19.3653C23.3317 20.1983 24.4233 20.6149 25.7531 20.6149C26.7653 20.6149 27.7279 20.3768 28.6409 19.9008C29.5738 19.4049 30.3677 18.7008 31.0226 17.7884C31.6974 16.8562 32.144 15.7752 32.3623 14.5454ZM43.9668 22.995C42.2599 22.995 40.8605 22.5884 39.7688 21.7752C38.6772 20.962 38.1314 19.8711 38.1314 18.5025C38.1314 18.2446 38.1413 18.0562 38.1612 17.9372H40.8108C40.7315 18.7901 40.9795 19.4843 41.5553 20.0198C42.1508 20.5554 43.0042 20.8231 44.1157 20.8231C45.2271 20.8231 46.1203 20.6149 46.7951 20.1983C47.4897 19.762 47.8371 19.157 47.8371 18.3835C47.8371 17.7289 47.5592 17.2132 47.0035 16.8364C46.4477 16.4595 45.5943 16.0529 44.4431 15.6165C43.4309 15.2397 42.5973 14.8826 41.9424 14.5454C41.2872 14.2083 40.7314 13.7421 40.275 13.1471C39.8185 12.5322 39.5902 11.7587 39.5902 10.8264C39.5902 9.91404 39.8482 9.10081 40.3643 8.38676C40.9002 7.67272 41.6347 7.12726 42.5676 6.7504C43.5202 6.35371 44.6019 6.15536 45.8126 6.15536C47.4798 6.15536 48.8493 6.57189 49.9211 7.40495C50.9928 8.238 51.5287 9.32891 51.5287 10.6777C51.5287 10.9355 51.5188 11.1339 51.4989 11.2727H48.9088L48.9386 10.9157C48.9386 10.1223 48.631 9.49751 48.0157 9.04131C47.4203 8.56528 46.6264 8.32726 45.634 8.32726C44.6615 8.32726 43.8576 8.54544 43.2225 8.98181C42.6072 9.41817 42.2996 10.0033 42.2996 10.7372C42.2996 11.4314 42.5874 11.9768 43.163 12.3735C43.7386 12.7702 44.6317 13.2066 45.8424 13.6826C46.8546 14.0793 47.6684 14.4463 48.2836 14.7835C48.8989 15.1008 49.4249 15.5471 49.8615 16.1223C50.2982 16.6975 50.5165 17.4215 50.5165 18.2942C50.5165 19.2463 50.2287 20.0793 49.6531 20.7934C49.0974 21.5074 48.3233 22.0529 47.331 22.4297C46.3386 22.8066 45.2172 22.995 43.9668 22.995ZM58.5088 3.77519C58.0722 3.77519 57.705 3.63635 57.4073 3.35867C57.1294 3.06115 56.9905 2.6942 56.9905 2.25784C56.9905 1.6628 57.2088 1.15701 57.6455 0.740484C58.0821 0.30412 58.5882 0.0859375 59.1638 0.0859375C59.6203 0.0859375 59.9875 0.22478 60.2653 0.502468C60.5432 0.780154 60.6821 1.1471 60.6821 1.60329C60.6821 2.19834 60.4638 2.71404 60.0272 3.1504C59.5905 3.56693 59.0844 3.77519 58.5088 3.77519ZM59.3722 6.42313L56.4844 22.7273H53.7752L56.663 6.42313H59.3722ZM65.061 6.42313L67.8297 19.5735L75.2427 6.42313H78.0412L63.9892 30.4033H61.1609L65.7755 22.5487L62.0541 6.42313H65.061ZM78.2939 14.5157C78.5916 12.8496 79.187 11.3917 80.0802 10.1421C80.9931 8.87272 82.0947 7.8909 83.3848 7.19668C84.6947 6.50247 86.084 6.15536 87.5527 6.15536C88.9818 6.15536 90.1627 6.4628 91.0955 7.07767C92.0284 7.69255 92.6734 8.4661 93.0307 9.39833L93.5665 6.42313H96.3055L93.4177 22.7273H90.6787L91.2444 19.6925C90.5299 20.6446 89.5871 21.438 88.4161 22.0727C87.2451 22.6876 85.955 22.995 84.5458 22.995C83.2756 22.995 82.1542 22.7273 81.1817 22.1917C80.2092 21.6364 79.455 20.8529 78.9191 19.8413C78.3832 18.8297 78.1153 17.6595 78.1153 16.3306C78.1153 15.7355 78.1748 15.1306 78.2939 14.5157ZM92.1375 14.5454C92.2169 14.1289 92.2566 13.6826 92.2566 13.2066C92.2566 11.7587 91.82 10.6182 90.9467 9.78511C90.0932 8.93222 89.0016 8.50577 87.6718 8.50577C86.6596 8.50577 85.6871 8.74379 84.7542 9.21982C83.8413 9.69586 83.0573 10.3901 82.4023 11.3025C81.7474 12.2149 81.3107 13.2859 81.0924 14.5157C81.013 14.9322 80.9733 15.3884 80.9733 15.8843C80.9733 17.3521 81.4 18.5124 82.2535 19.3653C83.1069 20.1983 84.1985 20.6149 85.5283 20.6149C86.5405 20.6149 87.5031 20.3768 88.4161 19.9008C89.3489 19.4049 90.1428 18.7008 90.7978 17.7884C91.4726 16.8562 91.9192 15.7752 92.1375 14.5454Z" fill="black"/>
<path d="M36.8668 30.7042L36.7278 31.438H32.7583L30.4362 44.6281H29.543L31.8652 31.438H27.8957L28.0346 30.7042H36.8668ZM43.1411 33.719C44.054 33.719 44.8281 33.8975 45.4632 34.2546C46.1116 34.5984 46.5945 35.0678 46.9121 35.6628C47.2429 36.2446 47.4083 36.8992 47.4083 37.6265C47.4083 37.9438 47.3818 38.2347 47.3289 38.4992C47.2495 38.9752 47.1701 39.3323 47.0907 39.5703H37.7821C37.7291 39.9934 37.7027 40.2975 37.7027 40.4827C37.7027 41.6199 38.0467 42.4926 38.7347 43.1008C39.4228 43.7091 40.2895 44.0132 41.3348 44.0132C42.3802 44.0132 43.3065 43.7554 44.1136 43.2397C44.934 42.7108 45.5161 41.9967 45.8602 41.0975H46.793C46.3696 42.1951 45.6617 43.0876 44.6693 43.7752C43.6902 44.4496 42.5324 44.7868 41.1958 44.7868C39.8727 44.7868 38.8075 44.4033 38.0004 43.6364C37.2065 42.8694 36.8095 41.8248 36.8095 40.5025C36.8095 40.0926 36.8492 39.6694 36.9286 39.2331C37.1271 38.1091 37.524 37.1306 38.1195 36.2975C38.7149 35.4645 39.4426 34.8298 40.3027 34.3934C41.176 33.9438 42.1222 33.719 43.1411 33.719ZM46.3762 38.8761C46.4688 38.4926 46.5151 38.1025 46.5151 37.7058C46.5151 36.6612 46.1777 35.8612 45.5029 35.3058C44.8413 34.7504 44.0011 34.4727 42.9823 34.4727C42.2281 34.4727 41.5003 34.638 40.7989 34.9686C40.0976 35.2992 39.489 35.7951 38.9729 36.4562C38.4569 37.1174 38.0996 37.924 37.9012 38.8761H46.3762ZM51.2388 36.6942C51.702 35.8347 52.3834 35.1273 53.2831 34.5719C54.1829 34.0033 55.1951 33.719 56.3198 33.719C57.6562 33.719 58.7147 34.1025 59.4954 34.8694C60.2761 35.6232 60.6664 36.6612 60.6664 37.9835C60.6664 38.3802 60.6267 38.7967 60.5473 39.2331C60.3488 40.3438 59.9519 41.3223 59.3565 42.1686C58.7743 43.0017 58.0465 43.6496 57.1733 44.1124C56.3132 44.562 55.3804 44.7868 54.3747 44.7868C53.2501 44.7868 52.3371 44.5091 51.6358 43.9537C50.9345 43.3851 50.4979 42.6711 50.3259 41.8116L48.9365 49.7058H48.0632L50.8617 33.8579H51.735L51.2388 36.6942ZM59.6343 39.2331C59.7005 38.9025 59.7336 38.5256 59.7336 38.1025C59.7336 36.9653 59.4028 36.0794 58.7412 35.4446C58.0796 34.8099 57.1865 34.4926 56.0618 34.4926C55.2282 34.4926 54.4409 34.6909 53.6999 35.0876C52.959 35.4711 52.3305 36.0265 51.8144 36.7537C51.2984 37.4678 50.9544 38.2942 50.7824 39.2331C50.7162 39.6562 50.6831 40.0066 50.6831 40.2843C50.6831 41.4215 51.0205 42.3273 51.6953 43.0017C52.3834 43.6628 53.2765 43.9934 54.3747 43.9934C55.248 43.9934 56.0486 43.8017 56.7763 43.4182C57.5173 43.0347 58.1325 42.486 58.6221 41.7719C59.1249 41.0579 59.4623 40.2116 59.6343 39.2331ZM64.5933 36.6942C65.0564 35.8347 65.7379 35.1273 66.6376 34.5719C67.5374 34.0033 68.5496 33.719 69.6743 33.719C71.0107 33.719 72.0692 34.1025 72.8495 34.8694C73.6306 35.6232 74.0209 36.6612 74.0209 37.9835C74.0209 38.3802 73.9812 38.7967 73.9018 39.2331C73.7033 40.3438 73.3064 41.3223 72.711 42.1686C72.1288 43.0017 71.401 43.6496 70.5277 44.1124C69.6677 44.562 68.7348 44.7868 67.7292 44.7868C66.6045 44.7868 65.6916 44.5091 64.9903 43.9537C64.289 43.3851 63.8523 42.6711 63.6803 41.8116L62.2906 49.7058H61.4173L64.2162 33.8579H65.0895L64.5933 36.6942ZM72.9888 39.2331C73.055 38.9025 73.0881 38.5256 73.0881 38.1025C73.0881 36.9653 72.7573 36.0794 72.0957 35.4446C71.4341 34.8099 70.541 34.4926 69.4163 34.4926C68.5827 34.4926 67.7954 34.6909 67.0544 35.0876C66.3134 35.4711 65.6849 36.0265 65.1689 36.7537C64.6529 37.4678 64.3088 38.2942 64.1368 39.2331C64.0707 39.6562 64.0376 40.0066 64.0376 40.2843C64.0376 41.4215 64.375 42.3273 65.0498 43.0017C65.7379 43.6628 66.631 43.9934 67.7292 43.9934C68.6025 43.9934 69.403 43.8017 70.1308 43.4182C70.8717 43.0347 71.487 42.486 71.9766 41.7719C72.4794 41.0579 72.8168 40.2116 72.9888 39.2331ZM76.042 39.2331C76.2405 38.1223 76.6308 37.1504 77.213 36.3174C77.8085 35.4843 78.5428 34.843 79.4161 34.3934C80.2894 33.9438 81.2288 33.719 82.2345 33.719C83.3591 33.719 84.2655 33.9967 84.9536 34.5521C85.6548 35.1075 86.0915 35.8149 86.2635 36.6744L86.7597 33.8579H87.6528L85.7276 44.6281H84.8543L85.3505 41.7918C84.8874 42.6645 84.206 43.3851 83.3062 43.9537C82.4065 44.5091 81.3876 44.7868 80.2497 44.7868C78.9398 44.7868 77.8878 44.4033 77.0939 43.6364C76.3133 42.8562 75.9229 41.805 75.9229 40.4827C75.9229 40.086 75.9626 39.6694 76.042 39.2331ZM85.807 39.2331C85.8732 38.8364 85.9062 38.486 85.9062 38.1818C85.9062 37.0579 85.5688 36.1653 84.894 35.5042C84.2192 34.8298 83.3261 34.4926 82.2146 34.4926C81.3413 34.4926 80.5342 34.6843 79.7932 35.0678C79.0655 35.438 78.4502 35.9802 77.9474 36.6942C77.4578 37.4083 77.127 38.2546 76.955 39.2331C76.8889 39.6694 76.8558 40.0397 76.8558 40.3438C76.8558 41.4942 77.18 42.3934 77.8283 43.0413C78.4899 43.6761 79.3896 43.9934 80.5276 43.9934C81.3612 43.9934 82.1484 43.8017 82.8894 43.4182C83.6436 43.0215 84.2721 42.4661 84.7749 41.7521C85.291 41.0248 85.635 40.1851 85.807 39.2331ZM91.7782 31.4579C91.593 31.4579 91.4408 31.405 91.3217 31.2992C91.2026 31.1802 91.1431 31.0281 91.1431 30.843C91.1431 30.5785 91.2357 30.3604 91.4209 30.1885C91.6062 30.0033 91.8179 29.9108 92.0561 29.9108C92.2413 29.9108 92.3935 29.9703 92.5126 30.0893C92.6449 30.2083 92.711 30.3604 92.711 30.5455C92.711 30.8099 92.6118 31.0281 92.4133 31.2C92.2281 31.3719 92.0164 31.4579 91.7782 31.4579ZM91.8179 33.8579L89.8927 44.6281H88.9996L90.9248 33.8579H91.8179ZM95.0125 41.7521C94.9596 42.0165 94.9331 42.281 94.9331 42.5455C94.9331 43.0215 95.0654 43.3587 95.3301 43.557C95.5947 43.7422 96.0314 43.8347 96.64 43.8347H97.8309L97.6919 44.6281H96.3423C95.5484 44.6281 94.9596 44.4761 94.5759 44.1719C94.2054 43.8678 94.0201 43.3653 94.0201 42.6645C94.0201 42.3604 94.0466 42.0562 94.0995 41.7521L95.3698 34.6314H93.7423L93.8812 33.8579H95.5087L95.9851 31.1207H96.898L96.4217 33.8579H99.5973L99.4584 34.6314H96.2828L95.0125 41.7521ZM104.811 44.7868C103.461 44.7868 102.376 44.3967 101.556 43.6165C100.749 42.8364 100.345 41.7785 100.345 40.443C100.345 39.2265 100.617 38.1025 101.159 37.0711C101.715 36.0397 102.482 35.2265 103.461 34.6314C104.441 34.0232 105.532 33.719 106.736 33.719C107.609 33.719 108.384 33.8975 109.058 34.2546C109.733 34.5984 110.256 35.1008 110.626 35.762C111.01 36.4099 111.202 37.1769 111.202 38.0628C111.202 39.2794 110.924 40.4033 110.368 41.4347C109.813 42.4661 109.045 43.286 108.066 43.8942C107.1 44.4893 106.015 44.7868 104.811 44.7868ZM104.93 44.0132C105.962 44.0132 106.882 43.7422 107.689 43.2C108.509 42.6579 109.144 41.9372 109.594 41.038C110.057 40.1389 110.289 39.1604 110.289 38.1025C110.289 36.9256 109.938 36.0265 109.237 35.405C108.536 34.7835 107.656 34.4727 106.597 34.4727C105.552 34.4727 104.626 34.7438 103.819 35.286C103.011 35.8281 102.383 36.5554 101.933 37.4678C101.483 38.367 101.258 39.3389 101.258 40.3835C101.258 41.5603 101.602 42.4595 102.29 43.081C102.992 43.7025 103.872 44.0132 104.93 44.0132ZM117.604 44.7868C116.254 44.7868 115.169 44.3967 114.349 43.6165C113.541 42.8364 113.138 41.7785 113.138 40.443C113.138 39.2265 113.409 38.1025 113.952 37.0711C114.507 36.0397 115.275 35.2265 116.254 34.6314C117.233 34.0232 118.325 33.719 119.529 33.719C120.402 33.719 121.176 33.8975 121.851 34.2546C122.526 34.5984 123.048 35.1008 123.419 35.762C123.803 36.4099 123.994 37.1769 123.994 38.0628C123.994 39.2794 123.717 40.4033 123.161 41.4347C122.605 42.4661 121.838 43.286 120.859 43.8942C119.893 44.4893 118.808 44.7868 117.604 44.7868ZM117.723 44.0132C118.755 44.0132 119.674 43.7422 120.481 43.2C121.302 42.6579 121.937 41.9372 122.386 41.038C122.85 40.1389 123.081 39.1604 123.081 38.1025C123.081 36.9256 122.731 36.0265 122.03 35.405C121.328 34.7835 120.448 34.4727 119.39 34.4727C118.345 34.4727 117.418 34.7438 116.611 35.286C115.804 35.8281 115.176 36.5554 114.726 37.4678C114.276 38.367 114.051 39.3389 114.051 40.3835C114.051 41.5603 114.395 42.4595 115.083 43.081C115.784 43.7025 116.664 44.0132 117.723 44.0132ZM132.44 33.6397C133.538 33.6397 134.418 33.9372 135.08 34.5323C135.741 35.1141 136.072 35.9802 136.072 37.1306C136.072 37.4876 136.032 37.8843 135.953 38.3207L134.842 44.6281H133.968L135.08 38.3802C135.146 37.957 135.179 37.6066 135.179 37.3289C135.179 36.3769 134.914 35.6562 134.385 35.167C133.856 34.6645 133.115 34.4132 132.162 34.4132C131.051 34.4132 130.091 34.757 129.284 35.4446C128.477 36.1323 127.921 37.1438 127.617 38.4794L126.525 44.6281H125.632L127.557 33.8579H128.451L128.054 36.119C128.504 35.3124 129.112 34.6975 129.88 34.2744C130.66 33.8513 131.514 33.6397 132.44 33.6397Z" fill="black"/>
</svg>
