<svg xmlns="http://www.w3.org/2000/svg" xmlns:xlink="http://www.w3.org/1999/xlink" viewBox="0 0 84.01 85.03"><defs><style>.cls-1{fill:none;}.cls-2{clip-path:url(#clip-path);}.cls-3{fill:#dafd99;}.cls-4{fill:#28284f;}.cls-5{fill:#f5bd9e;}.cls-6{fill:#b7424d;}.cls-7{fill:#060307;}.cls-8{fill:#dd885a;}.cls-9{fill:#383864;}.cls-10{fill:#f4f1e8;}</style><clipPath id="clip-path" transform="translate(-0.14)"><circle class="cls-1" cx="42.01" cy="42.2" r="42.01"/></clipPath></defs><title>Asset 1</title><g id="Layer_2" data-name="Layer 2"><g id="Layer_1-2" data-name="Layer 1"><g class="cls-2"><circle class="cls-3" cx="42.01" cy="42.01" r="42.01"/><path class="cls-4" d="M67.54,80.27l-.37-.7c.11-.06,10.39-5.93-.18-31.69l.74-.3C78.6,74.08,68,80,67.54,80.27Z" transform="translate(-0.14)"/><path class="cls-4" d="M16.39,83.92c-6.77-12.52-.31-36.57,0-37.59l.77.21c-.07.24-6.65,24.76,0,37Z" transform="translate(-0.14)"/><path class="cls-4" d="M39.69,84a17.3,17.3,0,0,0,2.67-7.86A21,21,0,0,0,43.71,84H65.23C76.79,69.28,67,27.27,58.57,19.68,43.89,6.42,18.5,15.23,16.74,37c0,0-6.59,35.14,3.7,47Z" transform="translate(-0.14)"/><path class="cls-4" d="M55.41,21.18S49.92,9.85,35.88,15.45,9.72,38.62,21.5,47.73l31.74-1.3,5.33,3.84s10-8.15,6.6-18.44S55.41,21.18,55.41,21.18Z" transform="translate(-0.14)"/><path class="cls-5" d="M58.26,27.41c.87,2.8,4.31,15-2.42,26.07C54.36,55.92,49.47,64,42.22,64.09c-8.67.16-15.13-11-16.92-19.09-.66-3-1.94-8.77.91-13.43C30.66,24.28,43.91,21.83,58.26,27.41Z" transform="translate(-0.14)"/><path class="cls-5" d="M62.67,76.75l-.06,0-.43-.23c-.25-.08-.5-.16-.75-.26a6,6,0,0,1-1.85-1.1L59,74.84a4.91,4.91,0,0,1-1.21-.61A27.54,27.54,0,0,1,53,71.29c-4.62-3.77-1.74-29-1.74-29L31.81,34.2s2.38,26.12,1.9,31.22C33,72.58,22.48,75.73,15.61,77a2.67,2.67,0,0,1,.09.26,5.81,5.81,0,0,1,1.2.52H60.79C63.45,77.81,63.67,77.43,62.67,76.75Z" transform="translate(-0.14)"/><path class="cls-5" d="M19.22,81.19c11.64.32,23.34-1.12,34.92-.53,3.22.16,3.21-4.84,0-5-11.59-.59-23.28.85-34.92.53-3.21-.09-3.21,4.91,0,5Z" transform="translate(-0.14)"/><path class="cls-5" d="M59.13,77l-2.54-.06,1.26,4.66c1.11-.63,2.23-2.86.57-3.8-.45-.26-3.81.8-4.57.93a79.89,79.89,0,0,1-9.52,1.06,84.6,84.6,0,0,1-17.91-1c-3.15-.5-4.51,4.32-1.33,4.82,11.56,1.84,25.21,2.47,36.47-1.44,2.24-.78,4.74-3,3-5.61-2.1-3.24-6.93-.61-9.28.71a2.52,2.52,0,0,0,1.26,4.66l2.54.06c3.22.07,3.22-4.93,0-5Z" transform="translate(-0.14)"/><path class="cls-6" d="M43.42,51.53a16.2,16.2,0,0,1-3.36-.39l.32-.27a20.05,20.05,0,0,0,2.91.39,10.33,10.33,0,0,0-.51-3.67l.6-.09c1,3.8.44,3.94.18,4Z" transform="translate(-0.14)"/><path class="cls-6" d="M42.64,57.69a7.9,7.9,0,0,1-4.56-1.87l.73-.48S40.93,57.2,43,56.93a3.92,3.92,0,0,0,2.87-2.36l.89.27a4.78,4.78,0,0,1-3.6,2.81A3.6,3.6,0,0,1,42.64,57.69Z" transform="translate(-0.14)"/><ellipse class="cls-7" cx="35.74" cy="44.87" rx="1.21" ry="1.57"/><ellipse class="cls-7" cx="48.42" cy="44.87" rx="1.21" ry="1.57"/><path class="cls-5" d="M27.84,46.68S25.61,40,22.66,42.92s.3,10.86,3.12,10.83S29.17,49.39,27.84,46.68Z" transform="translate(-0.14)"/><path class="cls-5" d="M56.57,46.42s2.27-6.63,5.2-3.73S61.42,53.54,58.6,53.5,55.23,49.13,56.57,46.42Z" transform="translate(-0.14)"/><path class="cls-8" d="M33.61,61.09s8.53,6.48,16.79.53l.17,3.31s-1.91,3.55-7.38,3.82S33.71,65,33.71,65Z" transform="translate(-0.14)"/><path class="cls-4" d="M46.57,38.82s2.16-2.1,5.22.15C53.57,40.29,44.08,41,46.57,38.82Z" transform="translate(-0.14)"/><path class="cls-4" d="M37.33,38.82s-2.16-2.1-5.22.15C30.33,40.29,39.82,41,37.33,38.82Z" transform="translate(-0.14)"/><path class="cls-6" d="M25.28,51.13c-.18-4.52-1.07-5.35-1.45-5.49s-.89.28-.89.29l-.57-.56a1.76,1.76,0,0,1,1.74-.48c1.17.45,1.81,2.48,2,6.21Z" transform="translate(-0.14)"/><path class="cls-6" d="M58.47,51.13l-.8,0c.15-3.73.79-5.76,2-6.21a1.78,1.78,0,0,1,1.75.48l-.57.56.28-.28-.28.28s-.46-.46-.9-.29S58.65,46.61,58.47,51.13Z" transform="translate(-0.14)"/><path class="cls-4" d="M31.35,59.41C25.53,46.46,26.45,41,28.72,38.56,30.19,37,31.9,37,35,35.53A29.39,29.39,0,0,0,47.17,24.88a34.38,34.38,0,0,0,4.1,8A40.46,40.46,0,0,0,55,37.36C60.7,44.11,53.66,61,54,61.08s13-18.87,4.9-33c-.69-1.21-4.67-7.9-12.12-9.29C37.84,17.1,29,24,25.45,31.53,21.28,40.34,23.59,51.56,31.35,59.41Z" transform="translate(-0.14)"/><path class="cls-4" d="M21.17,34.77c-.49-.13-1-.27-1.47-.43l.27-.76c6.27,2,11.66,2.1,16.06.39,9.45-3.69,11.29-14.72,11.3-14.83l1.09.23c-.07.47-1.92,11.5-11.77,15.35C32.33,36.4,27.13,36.42,21.17,34.77Z" transform="translate(-0.14)"/><path class="cls-4" d="M67.14,45.77l-.78-.11c1.34-9.55-.31-17.15-4.9-22.6-7-8.24-18.4-8.66-18.51-8.67l0-.79c.12,0,11.91.44,19.1,9C66.81,28.17,68.52,36,67.14,45.77Z" transform="translate(-0.14)"/><path class="cls-9" d="M57.67,41.14A30.57,30.57,0,0,0,43.38,19.33l.37-.71A31.49,31.49,0,0,1,58.46,41Z" transform="translate(-0.14)"/><path class="cls-9" d="M63.31,41.15,62.53,41C65.3,24.22,46.23,17.93,46,17.87l.25-.76C46.48,17.18,66.2,23.68,63.31,41.15Z" transform="translate(-0.14)"/><path class="cls-9" d="M25.3,45l-1.19-.11A29.57,29.57,0,0,1,24.5,39a31.53,31.53,0,0,1,1.89-6.53c2.73-6,9-9.3,11-10.28l.75.29a22.27,22.27,0,0,0-7.43,5.61C24.93,34.79,25.17,42.88,25.3,45Z" transform="translate(-0.14)"/><path class="cls-9" d="M20.84,43.3H20c0-8.54,2.17-14.93,6.44-19a16.32,16.32,0,0,1,11.29-4.49l0,.79A15.89,15.89,0,0,0,27,24.9C22.92,28.8,20.84,35,20.84,43.3Z" transform="translate(-0.14)"/><path class="cls-9" d="M59.59,77c-2.14-4.38-2.77-20.07-2.8-20.74l.8,0c0,.16.65,16.19,2.71,20.42Z" transform="translate(-0.14)"/><path class="cls-9" d="M23.81,74.92l-.76-.25c1.83-5.52,1.41-17.75,1.41-17.87l.79,0C25.27,57.28,25.68,69.26,23.81,74.92Z" transform="translate(-0.14)"/><path class="cls-10" d="M34.06,51.14a5.8,5.8,0,1,1,5.81-5.8A5.8,5.8,0,0,1,34.06,51.14Zm0-11.07a5.27,5.27,0,1,0,5.27,5.27A5.27,5.27,0,0,0,34.06,40.07Z" transform="translate(-0.14)"/><path class="cls-10" d="M49.77,51.14a5.8,5.8,0,1,1,5.8-5.8A5.8,5.8,0,0,1,49.77,51.14Zm0-11.07A5.27,5.27,0,1,0,55,45.34,5.27,5.27,0,0,0,49.77,40.07Z" transform="translate(-0.14)"/><rect class="cls-10" x="26.5" y="41.6" width="0.53" height="4.56" transform="translate(-24.24 36.49) rotate(-50.35)"/><rect class="cls-10" x="39.46" y="45.08" width="4.63" height="0.53"/><rect class="cls-10" x="54.77" y="43.51" width="5.16" height="0.53" transform="translate(-14.93 44.01) rotate(-37.54)"/><path class="cls-4" d="M48.38,31.22a12.73,12.73,0,0,1-.45-7.73A3.89,3.89,0,0,1,47.1,23a13.27,13.27,0,0,0,.5,8.14c1.34,3.49,4.16,6.74,8.38,9.69.35.24.7.48,1.06.71l.31-.52C52.76,38.07,49.75,34.77,48.38,31.22Z" transform="translate(-0.14)"/></g></g></g></svg>