<?xml version="1.0" encoding="utf-8"?>
<!-- Generator: Adobe Illustrator 22.0.1, SVG Export Plug-In . SVG Version: 6.00 Build 0)  -->
<svg version="1.1" xmlns="http://www.w3.org/2000/svg" xmlns:xlink="http://www.w3.org/1999/xlink" x="0px" y="0px"
	 viewBox="0 0 500 500" style="enable-background:new 0 0 500 500;" xml:space="preserve">
<style type="text/css">
	.st0{clip-path:url(#SVGID_2_);fill:#E5FE9E;}
	.st1{clip-path:url(#SVGID_2_);}
	.st2{fill:#2C2C4F;}
	.st3{fill:#E7BD9F;}
	.st4{fill:#A0444E;}
	.st5{fill:#0D0A0F;}
	.st6{fill:#C9885D;}
	.st7{fill:#3B3B63;}
	.st8{fill:#F4F2E9;}
</style>
<g id="BACKGROUND">
</g>
<g id="OBJECTS">
	<g>
		<defs>
			<circle id="SVGID_1_" cx="250" cy="250" r="235.7"/>
		</defs>
		<clipPath id="SVGID_2_">
			<use xlink:href="#SVGID_1_"  style="overflow:visible;"/>
		</clipPath>
		<circle class="st0" cx="250.8" cy="248.9" r="235.7"/>
		<g class="st1">
			<path class="st2" d="M393.3,463.6l-2.1-3.9c0.6-0.3,58.3-33.3-1-177.8l4.1-1.7C455.4,428.9,395.9,462.3,393.3,463.6z"/>
			<path class="st2" d="M106.3,484.1c-38-70.3-1.8-205.2-0.2-210.9l4.3,1.2c-0.4,1.4-37.3,138.9-0.2,207.6L106.3,484.1z"/>
			<path class="st2" d="M237,484.6c10.1-14.4,13.7-32.1,15-44.1c0,11.7,1.2,28.9,7.6,44.1h95.9c8.3,0,16.6,0,24.9,0
				c64.8-82.7,9.7-318.4-37.4-361c-82.4-74.4-224.9-25-234.7,97.3c0,0-37,197.2,20.8,263.6H237z"/>
			<path class="st2" d="M325.2,132.1c0,0-30.8-63.6-109.6-32.2S68.9,229.9,134.9,281l178.1-7.3l29.9,21.5c0,0,56.2-45.8,37.1-103.5
				C360.9,134.1,325.2,132.1,325.2,132.1z"/>
			<path class="st3" d="M341.2,167c4.9,15.8,24.2,84.2-13.6,146.3c-8.3,13.7-35.7,58.7-76.4,59.5c-48.6,0.9-84.9-61.8-94.9-107.1
				c-3.7-16.7-10.9-49.2,5.1-75.3C186.3,149.4,260.7,135.7,341.2,167z"/>
			<path class="st3" d="M366,443.9c0,0-0.2-0.1-0.4-0.2c-0.1-0.1-1.2-0.7-2.4-1.3c-1.4-0.5-2.8-0.9-4.2-1.4c-4-1.5-7.4-3.7-10.4-6.2
				c-1-0.5-2.1-1-3.2-1.6c-2.4-0.8-4.7-2-6.8-3.4c-9.5-4.9-19.5-10.4-26.9-16.5c-25.9-21.2-9.7-162.9-9.7-162.9l-109.2-45.2
				c0,0,13.3,146.6,10.6,175.2c-3.8,40.2-63,57.8-101.6,65.1c0.2,0.5,0.3,1,0.5,1.5c-1.3,3.3-4,11.6-1.1,20.9
				c4,12.5,16.7,21.5,32,22.5c78.1-1.2,156.2-2.4,234.3-3.6c9.9-16.8,13.9-32,9.9-35.6C376,449.8,367.5,444.6,366,443.9z"/>
			<path class="st4" d="M257.9,302.3c-4.3,0.5-14.4-1.3-18.8-2.2l1.8-1.5c6.2,1.2,13.9,2.3,16.3,2.2c1-2-0.6-11.8-2.8-20.6l3.4-0.5
				c5.5,21.3,2.5,22.1,1,22.4C258.5,302.3,258.2,302.3,257.9,302.3z"/>
			<path class="st4" d="M253.6,336.9c-13.4,0.1-25-10-25.6-10.5l4.1-2.7c0.1,0.1,11.9,10.5,23.8,8.9c6.5-0.8,11.9-5.3,16.1-13.3
				l5,1.5c-5,9.4-11.8,14.7-20.2,15.8C255.6,336.9,254.6,336.9,253.6,336.9z"/>
			<ellipse class="st5" cx="215.6" cy="265" rx="6.8" ry="8.8"/>
			<ellipse class="st5" cx="286.8" cy="265" rx="6.8" ry="8.8"/>
			<path class="st3" d="M170.5,275.1c0,0-12.6-37.3-29.1-21.1s1.7,60.9,17.5,60.7S178,290.4,170.5,275.1z"/>
			<path class="st3" d="M331.7,273.7c0,0,12.7-37.2,29.2-20.9c16.4,16.3-2,60.9-17.8,60.7C327.3,313.2,324.2,288.9,331.7,273.7z"/>
			<path class="st6" d="M202.9,356c0,0,47.8,36.3,94.2,3l1,18.6c0,0-10.8,19.9-41.4,21.5s-53.2-21-53.2-21L202.9,356z"/>
			<path class="st2" d="M275.6,231c0,0,12.1-11.8,29.3,0.9C314.9,239.3,261.7,243.4,275.6,231z"/>
			<path class="st2" d="M223.7,231c0,0-12.1-11.8-29.3,0.9C184.5,239.3,237.7,243.4,223.7,231z"/>
			<path class="st4" d="M156.2,300.1c-1-25.4-6-30-8.1-30.8c-2.4-0.9-5,1.6-5,1.6l-3.2-3.1c0.2-0.2,4.6-4.7,9.8-2.7
				c6.6,2.5,10.2,13.9,11,34.8L156.2,300.1z"/>
			<path class="st4" d="M342.4,300.1l-4.5-0.2c0.9-20.9,4.5-32.3,11-34.8c5.2-2,9.6,2.5,9.8,2.7l-3.2,3.1l1.6-1.6l-1.6,1.6
				c0,0-2.6-2.6-5-1.6C348.4,270.1,343.4,274.7,342.4,300.1z"/>
			<path class="st2" d="M190.2,346.6c-32.7-72.6-27.5-103.1-14.8-117c8.2-8.9,17.8-9.1,35.4-17c33.2-15,54.7-39.9,68.1-59.8
				c3.9,10.9,10.8,27.3,23,44.9c9.4,13.6,17.1,20.8,20.8,25.2c32.1,37.8-7.4,132.5-5.6,133.1c2.1,0.7,72.7-105.9,27.5-185.3
				c-3.9-6.8-26.2-44.3-68-52.1c-50.1-9.3-99.6,29.3-119.6,71.6C133.7,239.6,146.7,302.5,190.2,346.6z"/>
			<path class="st2" d="M235.9,256.3"/>
			<path class="st2" d="M133.1,208.3c-2.7-0.8-5.4-1.6-8.2-2.4l1.5-4.3c35.1,11.1,65.4,11.8,90.1,2.2c53-20.7,63.3-82.6,63.4-83.2
				l6.1,1.3c-0.4,2.6-10.8,64.5-66,86.1C195.7,217.5,166.5,217.6,133.1,208.3z"/>
			<path class="st2" d="M391.1,270l-4.4-0.6c7.6-53.6-1.7-96.2-27.5-126.8C320.1,96.4,255.9,94,255.3,94l0.1-4.5
				c0.7,0,66.9,2.5,107.2,50.2C389.2,171.3,398.8,215.1,391.1,270z"/>
			<path class="st7" d="M337.9,244.1c-12.8-86.2-79.5-122-80.2-122.4l2.1-4c0.7,0.4,69.4,37.3,82.5,125.7L337.9,244.1z"/>
			<path class="st7" d="M369.6,244.1l-4.4-0.7c15.6-94.3-91.5-129.5-92.5-129.9l1.4-4.3C275.1,109.6,385.8,146.1,369.6,244.1z"/>
			<path class="st7" d="M156.3,265.7c-2.2-0.2-4.4-0.4-6.7-0.6c-0.3-8.3,0-19.8,2.2-33.1c0.2-1.4,3.7-21.2,10.6-36.6
				c15.3-33.9,50.2-52.2,61.6-57.7l4.2,1.6c-11.2,5.3-27.3,14.8-41.7,31.5C154.2,208.5,155.5,253.8,156.3,265.7z"/>
			<path class="st7" d="M131.2,256.2h-4.5c0-47.9,12.2-83.8,36.1-106.5c28.1-26.7,61.9-25.3,63.3-25.2l-0.2,4.5
				c-0.3,0-33.4-1.3-60.1,24.1C142.9,174.8,131.2,209.6,131.2,256.2z"/>
			<path class="st7" d="M348.7,445.4c-12-24.6-15.6-112.6-15.7-116.4l4.5-0.2c0,0.9,3.6,90.9,15.2,114.6L348.7,445.4z"/>
			<path class="st7" d="M147.9,433.6l-4.2-1.4c10.2-31,7.9-99.6,7.9-100.3l4.5-0.2C156.1,334.6,158.4,401.8,147.9,433.6z"/>
			<path class="st8" d="M205.4,300.2c-18,0-32.6-14.6-32.6-32.6s14.6-32.6,32.6-32.6s32.6,14.6,32.6,32.6S223.4,300.2,205.4,300.2z
				 M205.4,238c-16.3,0-29.6,13.3-29.6,29.6s13.3,29.6,29.6,29.6s29.6-13.3,29.6-29.6S221.7,238,205.4,238z"/>
			<path class="st8" d="M293.6,300.2c-18,0-32.6-14.6-32.6-32.6s14.6-32.6,32.6-32.6c18,0,32.6,14.6,32.6,32.6
				S311.5,300.2,293.6,300.2z M293.6,238c-16.3,0-29.6,13.3-29.6,29.6s13.3,29.6,29.6,29.6s29.6-13.3,29.6-29.6S309.9,238,293.6,238
				z"/>
			
				<rect x="163" y="246.7" transform="matrix(0.6382 -0.7699 0.7699 0.6382 -140.2393 220.5326)" class="st8" width="3" height="25.6"/>
			<rect x="236.5" y="266.1" class="st8" width="26" height="3"/>
			
				<rect x="321.6" y="257.3" transform="matrix(0.7929 -0.6093 0.6093 0.7929 -88.1006 258.4037)" class="st8" width="28.9" height="3"/>
			<path class="st7" d="M459.4,12.2"/>
			<path class="st2" d="M285.8,188.4c-6.2-16-5.6-30.9-2.6-43.4c-1.7-0.7-3.2-1.5-4.7-2.5c-3.2,13-3.8,28.6,2.8,45.7
				c7.5,19.6,23.4,37.8,47.1,54.4c1.9,1.3,3.9,2.7,5.9,4l1.7-2.9C310.3,226.9,293.5,208.3,285.8,188.4z"/>
		</g>
	</g>
</g>
</svg>
