<svg width="141" height="50" viewBox="0 0 141 50" fill="none" xmlns="http://www.w3.org/2000/svg">
<path d="M141 14.0496H0V39.6694H141V14.0496Z" fill="#E5FE9E"/>
<path d="M7.85952 22.9355C5.93431 22.9355 4.36636 22.4793 3.15566 21.5669C1.96481 20.6347 1.36938 19.395 1.36938 17.8479C1.36938 17.5504 1.37931 17.3322 1.39916 17.1934H4.07857C4.01903 18.1653 4.31674 18.9983 4.97171 19.6925C5.62667 20.3868 6.62897 20.7339 7.9786 20.7339C9.32823 20.7339 10.4 20.4264 11.1939 19.8116C11.9878 19.1967 12.3847 18.3339 12.3847 17.2231C12.3847 16.5487 12.1863 15.9835 11.7893 15.5273C11.4122 15.0512 10.9359 14.6645 10.3603 14.3669C9.80457 14.0496 9.04044 13.7025 8.06792 13.3256C6.87707 12.8496 5.91446 12.4033 5.18011 11.9868C4.4656 11.5702 3.86025 11.0049 3.36406 10.2909C2.86787 9.57685 2.63963 8.67437 2.67932 7.58346C2.67932 6.43305 2.98696 5.41156 3.60223 4.519C4.2175 3.62643 5.06102 2.94214 6.13279 2.4661C7.2244 1.97024 8.46487 1.7223 9.85419 1.7223C11.2038 1.7223 12.3649 1.9504 13.3374 2.4066C14.3298 2.8628 15.0741 3.49751 15.5703 4.31073C16.0665 5.12395 16.2848 6.03635 16.2252 7.04792H13.397C13.4367 6.53222 13.3176 6.03635 13.0397 5.56032C12.7817 5.08429 12.3649 4.69751 11.7893 4.39999C11.2336 4.10247 10.5389 3.95371 9.70534 3.95371C8.41525 3.95371 7.37325 4.26115 6.57935 4.87602C5.8053 5.47106 5.41828 6.2942 5.41828 7.34544C5.41828 7.96032 5.5969 8.49586 5.95416 8.95205C6.33126 9.38842 6.79768 9.76528 7.35341 10.0826C7.90914 10.3802 8.67327 10.7372 9.64579 11.1537C10.8168 11.6496 11.7695 12.1157 12.5038 12.5521C13.258 12.9686 13.8932 13.5339 14.4092 14.2479C14.9252 14.962 15.1832 15.8545 15.1832 16.9256C15.1832 18.076 14.8855 19.1074 14.2901 20.0198C13.6947 20.9124 12.8412 21.6264 11.7298 22.162C10.6183 22.6777 9.32823 22.9355 7.85952 22.9355ZM18.5186 14.5157C18.8163 12.8496 19.4117 11.3917 20.3049 10.1421C21.2178 8.87272 22.3194 7.8909 23.6095 7.19668C24.9194 6.50247 26.3087 6.15536 27.7774 6.15536C29.2065 6.15536 30.3874 6.4628 31.3202 7.07767C32.2531 7.69255 32.8981 8.4661 33.2554 9.39833L33.7912 6.42313H36.5302L33.6424 22.7273H30.9034L31.4691 19.6925C30.7546 20.6446 29.8118 21.438 28.6408 22.0727C27.4698 22.6876 26.1797 22.995 24.7705 22.995C23.5003 22.995 22.3789 22.7273 21.4064 22.1917C20.4339 21.6364 19.6797 20.8529 19.1438 19.8413C18.6079 18.8297 18.34 17.6595 18.34 16.3306C18.34 15.7355 18.3995 15.1306 18.5186 14.5157ZM32.3622 14.5454C32.4416 14.1289 32.4813 13.6826 32.4813 13.2066C32.4813 11.7587 32.0447 10.6182 31.1714 9.78511C30.3179 8.93222 29.2263 8.50577 27.8965 8.50577C26.8843 8.50577 25.9118 8.74379 24.9789 9.21982C24.066 9.69586 23.282 10.3901 22.627 11.3025C21.972 12.2149 21.5354 13.2859 21.3171 14.5157C21.2377 14.9322 21.198 15.3884 21.198 15.8843C21.198 17.3521 21.6247 18.5124 22.4782 19.3653C23.3316 20.1983 24.4232 20.6149 25.753 20.6149C26.7652 20.6149 27.7278 20.3768 28.6408 19.9008C29.5736 19.4049 30.3675 18.7008 31.0225 17.7884C31.6973 16.8562 32.1439 15.7752 32.3622 14.5454ZM43.9667 22.995C42.2598 22.995 40.8603 22.5884 39.7687 21.7752C38.6771 20.962 38.1313 19.8711 38.1313 18.5025C38.1313 18.2446 38.1412 18.0562 38.1611 17.9372H40.8107C40.7313 18.7901 40.9794 19.4843 41.5552 20.0198C42.1506 20.5554 43.0041 20.8231 44.1155 20.8231C45.227 20.8231 46.1201 20.6149 46.7949 20.1983C47.4896 19.762 47.8369 19.157 47.8369 18.3835C47.8369 17.7289 47.5591 17.2132 47.0033 16.8364C46.4476 16.4595 45.5942 16.0529 44.443 15.6165C43.4308 15.2397 42.5972 14.8826 41.9422 14.5454C41.2871 14.2083 40.7313 13.7421 40.2748 13.1471C39.8183 12.5322 39.5901 11.7587 39.5901 10.8264C39.5901 9.91404 39.8481 9.10081 40.3641 8.38676C40.9 7.67272 41.6346 7.12726 42.5674 6.7504C43.5201 6.35371 44.6018 6.15536 45.8125 6.15536C47.4797 6.15536 48.8492 6.57189 49.9209 7.40495C50.9927 8.238 51.5286 9.32891 51.5286 10.6777C51.5286 10.9355 51.5187 11.1339 51.4988 11.2727H48.9087L48.9385 10.9157C48.9385 10.1223 48.6308 9.49751 48.0156 9.04131C47.4201 8.56528 46.6262 8.32726 45.6339 8.32726C44.6613 8.32726 43.8575 8.54544 43.2224 8.98181C42.6071 9.41817 42.2995 10.0033 42.2995 10.7372C42.2995 11.4314 42.5873 11.9768 43.1629 12.3735C43.7384 12.7702 44.6316 13.2066 45.8423 13.6826C46.8545 14.0793 47.6682 14.4463 48.2835 14.7835C48.8988 15.1008 49.4247 15.5471 49.8614 16.1223C50.298 16.6975 50.5164 17.4215 50.5164 18.2942C50.5164 19.2463 50.2286 20.0793 49.653 20.7934C49.0973 21.5074 48.3232 22.0529 47.3308 22.4297C46.3385 22.8066 45.2171 22.995 43.9667 22.995ZM58.5087 3.77519C58.0721 3.77519 57.7049 3.63635 57.4072 3.35867C57.1293 3.06115 56.9904 2.6942 56.9904 2.25784C56.9904 1.6628 57.2087 1.15701 57.6453 0.740484C58.082 0.30412 58.5881 0.0859375 59.1637 0.0859375C59.6202 0.0859375 59.9873 0.22478 60.2652 0.502468C60.5431 0.780154 60.682 1.1471 60.682 1.60329C60.682 2.19834 60.4637 2.71404 60.027 3.1504C59.5904 3.56693 59.0843 3.77519 58.5087 3.77519ZM59.3721 6.42313L56.4843 22.7273H53.7751L56.6629 6.42313H59.3721ZM65.0609 6.42313L67.8296 19.5735L75.2426 6.42313H78.0411L63.9891 30.4033H61.1608L65.7754 22.5487L62.054 6.42313H65.0609ZM78.2938 14.5157C78.5915 12.8496 79.1869 11.3917 80.08 10.1421C80.993 8.87272 82.0946 7.8909 83.3846 7.19668C84.6946 6.50247 86.0839 6.15536 87.5526 6.15536C88.9816 6.15536 90.1626 6.4628 91.0954 7.07767C92.0282 7.69255 92.6733 8.4661 93.0305 9.39833L93.5664 6.42313H96.3054L93.4176 22.7273H90.6786L91.2443 19.6925C90.5298 20.6446 89.587 21.438 88.416 22.0727C87.245 22.6876 85.9549 22.995 84.5457 22.995C83.2755 22.995 82.1541 22.7273 81.1816 22.1917C80.209 21.6364 79.4548 20.8529 78.919 19.8413C78.3831 18.8297 78.1151 17.6595 78.1151 16.3306C78.1151 15.7355 78.1747 15.1306 78.2938 14.5157ZM92.1374 14.5454C92.2168 14.1289 92.2565 13.6826 92.2565 13.2066C92.2565 11.7587 91.8198 10.6182 90.9465 9.78511C90.0931 8.93222 89.0015 8.50577 87.6717 8.50577C86.6595 8.50577 85.687 8.74379 84.7541 9.21982C83.8411 9.69586 83.0572 10.3901 82.4022 11.3025C81.7472 12.2149 81.3106 13.2859 81.0923 14.5157C81.0129 14.9322 80.9732 15.3884 80.9732 15.8843C80.9732 17.3521 81.3999 18.5124 82.2533 19.3653C83.1068 20.1983 84.1984 20.6149 85.5282 20.6149C86.5404 20.6149 87.503 20.3768 88.416 19.9008C89.3488 19.4049 90.1427 18.7008 90.7977 17.7884C91.4725 16.8562 91.9191 15.7752 92.1374 14.5454Z" fill="black"/>
<path d="M36.8668 30.7042L36.7279 31.438H32.7584L30.4362 44.6281H29.5431L31.8653 31.438H27.8958L28.0347 30.7042H36.8668ZM43.1411 33.719C44.0541 33.719 44.8282 33.8975 45.4633 34.2546C46.1116 34.5984 46.5946 35.0678 46.9121 35.6628C47.2429 36.2446 47.4083 36.8992 47.4083 37.6265C47.4083 37.9438 47.3819 38.2347 47.3289 38.4992C47.2496 38.9752 47.1702 39.3323 47.0908 39.5703H37.7821C37.7292 39.9934 37.7027 40.2975 37.7027 40.4827C37.7027 41.6199 38.0468 42.4926 38.7348 43.1008C39.4229 43.7091 40.2895 44.0132 41.3348 44.0132C42.3803 44.0132 43.3065 43.7554 44.1136 43.2397C44.934 42.7108 45.5162 41.9967 45.8602 41.0975H46.7931C46.3696 42.1951 45.6618 43.0876 44.6694 43.7752C43.6902 44.4496 42.5325 44.7868 41.1959 44.7868C39.8727 44.7868 38.8076 44.4033 38.0005 43.6364C37.2066 42.8694 36.8096 41.8248 36.8096 40.5025C36.8096 40.0926 36.8493 39.6694 36.9287 39.2331C37.1272 38.1091 37.5241 37.1306 38.1195 36.2975C38.715 35.4645 39.4427 34.8298 40.3028 34.3934C41.1761 33.9438 42.1223 33.719 43.1411 33.719ZM46.3763 38.8761C46.4689 38.4926 46.5152 38.1025 46.5152 37.7058C46.5152 36.6612 46.1778 35.8612 45.503 35.3058C44.8414 34.7504 44.0012 34.4727 42.9823 34.4727C42.2281 34.4727 41.5004 34.638 40.7989 34.9686C40.0977 35.2992 39.489 35.7951 38.973 36.4562C38.4569 37.1174 38.0997 37.924 37.9012 38.8761H46.3763ZM51.2389 36.6942C51.702 35.8347 52.3834 35.1273 53.2832 34.5719C54.183 34.0033 55.1952 33.719 56.3199 33.719C57.6563 33.719 58.7148 34.1025 59.4955 34.8694C60.2761 35.6232 60.6665 36.6612 60.6665 37.9835C60.6665 38.3802 60.6268 38.7967 60.5474 39.2331C60.3489 40.3438 59.952 41.3223 59.3565 42.1686C58.7743 43.0017 58.0466 43.6496 57.1733 44.1124C56.3133 44.562 55.3804 44.7868 54.3748 44.7868C53.2501 44.7868 52.3371 44.5091 51.6359 43.9537C50.9346 43.3851 50.4979 42.6711 50.3259 41.8116L48.9366 49.7058H48.0633L50.8618 33.8579H51.7351L51.2389 36.6942ZM59.6344 39.2331C59.7006 38.9025 59.7336 38.5256 59.7336 38.1025C59.7336 36.9653 59.4028 36.0794 58.7413 35.4446C58.0797 34.8099 57.1865 34.4926 56.0618 34.4926C55.2283 34.4926 54.441 34.6909 53.7 35.0876C52.959 35.4711 52.3305 36.0265 51.8145 36.7537C51.2984 37.4678 50.9544 38.2942 50.7824 39.2331C50.7163 39.6562 50.6832 40.0066 50.6832 40.2843C50.6832 41.4215 51.0206 42.3273 51.6954 43.0017C52.3834 43.6628 53.2766 43.9934 54.3748 43.9934C55.2481 43.9934 56.0486 43.8017 56.7764 43.4182C57.5173 43.0347 58.1326 42.486 58.6222 41.7719C59.125 41.0579 59.4624 40.2116 59.6344 39.2331ZM64.5934 36.6942C65.0565 35.8347 65.7379 35.1273 66.6377 34.5719C67.5374 34.0033 68.5497 33.719 69.6743 33.719C71.0107 33.719 72.0693 34.1025 72.8495 34.8694C73.6306 35.6232 74.0209 36.6612 74.0209 37.9835C74.0209 38.3802 73.9813 38.7967 73.9019 39.2331C73.7034 40.3438 73.3064 41.3223 72.711 42.1686C72.1288 43.0017 71.4011 43.6496 70.5278 44.1124C69.6677 44.562 68.7349 44.7868 67.7293 44.7868C66.6046 44.7868 65.6916 44.5091 64.9903 43.9537C64.2891 43.3851 63.8524 42.6711 63.6804 41.8116L62.2907 49.7058H61.4174L64.2163 33.8579H65.0896L64.5934 36.6942ZM72.9889 39.2331C73.055 38.9025 73.0881 38.5256 73.0881 38.1025C73.0881 36.9653 72.7573 36.0794 72.0957 35.4446C71.4342 34.8099 70.541 34.4926 69.4163 34.4926C68.5827 34.4926 67.7955 34.6909 67.0545 35.0876C66.3135 35.4711 65.685 36.0265 65.169 36.7537C64.6529 37.4678 64.3089 38.2942 64.1369 39.2331C64.0707 39.6562 64.0377 40.0066 64.0377 40.2843C64.0377 41.4215 64.3751 42.3273 65.0499 43.0017C65.7379 43.6628 66.6311 43.9934 67.7293 43.9934C68.6026 43.9934 69.4031 43.8017 70.1308 43.4182C70.8718 43.0347 71.4871 42.486 71.9767 41.7719C72.4795 41.0579 72.8169 40.2116 72.9889 39.2331ZM76.0421 39.2331C76.2406 38.1223 76.6309 37.1504 77.2131 36.3174C77.8085 35.4843 78.5429 34.843 79.4162 34.3934C80.2895 33.9438 81.2289 33.719 82.2345 33.719C83.3592 33.719 84.2656 33.9967 84.9536 34.5521C85.6549 35.1075 86.0915 35.8149 86.2636 36.6744L86.7597 33.8579H87.6529L85.7277 44.6281H84.8544L85.3506 41.7918C84.8875 42.6645 84.206 43.3851 83.3063 43.9537C82.4065 44.5091 81.3877 44.7868 80.2498 44.7868C78.9398 44.7868 77.8879 44.4033 77.094 43.6364C76.3133 42.8562 75.923 41.805 75.923 40.4827C75.923 40.086 75.9627 39.6694 76.0421 39.2331ZM85.8071 39.2331C85.8732 38.8364 85.9063 38.486 85.9063 38.1818C85.9063 37.0579 85.5689 36.1653 84.8941 35.5042C84.2193 34.8298 83.3261 34.4926 82.2147 34.4926C81.3414 34.4926 80.5342 34.6843 79.7933 35.0678C79.0655 35.438 78.4503 35.9802 77.9474 36.6942C77.4579 37.4083 77.1271 38.2546 76.9551 39.2331C76.8889 39.6694 76.8558 40.0397 76.8558 40.3438C76.8558 41.4942 77.18 42.3934 77.8284 43.0413C78.4899 43.6761 79.3897 43.9934 80.5276 43.9934C81.3612 43.9934 82.1485 43.8017 82.8895 43.4182C83.6437 43.0215 84.2722 42.4661 84.775 41.7521C85.291 41.0248 85.635 40.1851 85.8071 39.2331ZM91.7783 31.4579C91.593 31.4579 91.4409 31.405 91.3218 31.2992C91.2027 31.1802 91.1431 31.0281 91.1431 30.843C91.1431 30.5785 91.2358 30.3604 91.421 30.1885C91.6062 30.0033 91.818 29.9108 92.0561 29.9108C92.2414 29.9108 92.3935 29.9703 92.5126 30.0893C92.6449 30.2083 92.7111 30.3604 92.7111 30.5455C92.7111 30.8099 92.6119 31.0281 92.4134 31.2C92.2281 31.3719 92.0164 31.4579 91.7783 31.4579ZM91.818 33.8579L89.8928 44.6281H88.9996L90.9248 33.8579H91.818ZM95.0126 41.7521C94.9597 42.0165 94.9332 42.281 94.9332 42.5455C94.9332 43.0215 95.0655 43.3587 95.3301 43.557C95.5948 43.7422 96.0314 43.8347 96.6401 43.8347H97.8309L97.692 44.6281H96.3424C95.5485 44.6281 94.9597 44.4761 94.5759 44.1719C94.2054 43.8678 94.0202 43.3653 94.0202 42.6645C94.0202 42.3604 94.0467 42.0562 94.0996 41.7521L95.3698 34.6314H93.7423L93.8813 33.8579H95.5088L95.9851 31.1207H96.8981L96.4218 33.8579H99.5974L99.4584 34.6314H96.2828L95.0126 41.7521ZM104.811 44.7868C103.461 44.7868 102.376 44.3967 101.556 43.6165C100.749 42.8364 100.345 41.7785 100.345 40.443C100.345 39.2265 100.617 38.1025 101.159 37.0711C101.715 36.0397 102.482 35.2265 103.461 34.6314C104.441 34.0232 105.532 33.719 106.736 33.719C107.61 33.719 108.384 33.8975 109.058 34.2546C109.733 34.5984 110.256 35.1008 110.626 35.762C111.01 36.4099 111.202 37.1769 111.202 38.0628C111.202 39.2794 110.924 40.4033 110.368 41.4347C109.813 42.4661 109.045 43.286 108.066 43.8942C107.1 44.4893 106.015 44.7868 104.811 44.7868ZM104.93 44.0132C105.962 44.0132 106.882 43.7422 107.689 43.2C108.509 42.6579 109.144 41.9372 109.594 41.038C110.057 40.1389 110.289 39.1604 110.289 38.1025C110.289 36.9256 109.938 36.0265 109.237 35.405C108.536 34.7835 107.656 34.4727 106.597 34.4727C105.552 34.4727 104.626 34.7438 103.819 35.286C103.012 35.8281 102.383 36.5554 101.933 37.4678C101.483 38.367 101.258 39.3389 101.258 40.3835C101.258 41.5603 101.602 42.4595 102.29 43.081C102.992 43.7025 103.872 44.0132 104.93 44.0132ZM117.604 44.7868C116.254 44.7868 115.169 44.3967 114.349 43.6165C113.541 42.8364 113.138 41.7785 113.138 40.443C113.138 39.2265 113.409 38.1025 113.952 37.0711C114.507 36.0397 115.275 35.2265 116.254 34.6314C117.233 34.0232 118.325 33.719 119.529 33.719C120.402 33.719 121.176 33.8975 121.851 34.2546C122.526 34.5984 123.048 35.1008 123.419 35.762C123.803 36.4099 123.994 37.1769 123.994 38.0628C123.994 39.2794 123.717 40.4033 123.161 41.4347C122.605 42.4661 121.838 43.286 120.859 43.8942C119.893 44.4893 118.808 44.7868 117.604 44.7868ZM117.723 44.0132C118.755 44.0132 119.674 43.7422 120.481 43.2C121.302 42.6579 121.937 41.9372 122.386 41.038C122.85 40.1389 123.082 39.1604 123.082 38.1025C123.082 36.9256 122.731 36.0265 122.03 35.405C121.328 34.7835 120.448 34.4727 119.39 34.4727C118.345 34.4727 117.418 34.7438 116.611 35.286C115.804 35.8281 115.176 36.5554 114.726 37.4678C114.276 38.367 114.051 39.3389 114.051 40.3835C114.051 41.5603 114.395 42.4595 115.083 43.081C115.784 43.7025 116.664 44.0132 117.723 44.0132ZM132.44 33.6397C133.538 33.6397 134.418 33.9372 135.08 34.5323C135.741 35.1141 136.072 35.9802 136.072 37.1306C136.072 37.4876 136.032 37.8843 135.953 38.3207L134.842 44.6281H133.968L135.08 38.3802C135.146 37.957 135.179 37.6066 135.179 37.3289C135.179 36.3769 134.914 35.6562 134.385 35.167C133.856 34.6645 133.115 34.4132 132.162 34.4132C131.051 34.4132 130.091 34.757 129.284 35.4446C128.477 36.1323 127.921 37.1438 127.617 38.4794L126.525 44.6281H125.632L127.558 33.8579H128.451L128.054 36.119C128.504 35.3124 129.112 34.6975 129.88 34.2744C130.66 33.8513 131.514 33.6397 132.44 33.6397Z" fill="black"/>
</svg>
