<svg id="Layer_1" data-name="Layer 1" xmlns="http://www.w3.org/2000/svg" xmlns:xlink="http://www.w3.org/1999/xlink" viewBox="0 0 84.01 85.03"><defs><style>.cls-1{fill:none;}.cls-2{clip-path:url(#clip-path);}.cls-3{fill:#dafd99;}.cls-4{fill:#28284f;}.cls-5{fill:#f5bd9e;}.cls-6{fill:#b7424d;}.cls-7{fill:#060307;}.cls-8{fill:#dd885a;}.cls-9{fill:#383864;}.cls-10{fill:#f4f1e8;}</style><clipPath id="clip-path" transform="translate(-553.74 -378.51)"><circle class="cls-1" cx="595.61" cy="420.71" r="42.01"/></clipPath></defs><title>avatar</title><g class="cls-2"><circle class="cls-3" cx="42.01" cy="42.01" r="42.01"/><path class="cls-4" d="M621.15,458.78l-.37-.7c.1-.06,10.39-5.93-.18-31.69l.73-.3C632.21,452.59,621.61,458.54,621.15,458.78Z" transform="translate(-553.74 -378.51)"/><path class="cls-4" d="M570,462.43c-6.77-12.52-.31-36.57,0-37.59l.77.21c-.07.25-6.65,24.76,0,37Z" transform="translate(-553.74 -378.51)"/><path class="cls-4" d="M593.29,462.52a17.14,17.14,0,0,0,2.67-7.86,20.92,20.92,0,0,0,1.35,7.86h21.53c11.56-14.73,1.73-56.74-6.67-64.33-14.67-13.26-40.07-4.45-41.82,17.35,0,0-6.6,35.14,3.7,47Z" transform="translate(-553.74 -378.51)"/><path class="cls-4" d="M609,399.7s-5.49-11.34-19.54-5.74-26.15,23.17-14.38,32.28l31.75-1.3,5.32,3.84s10-8.15,6.61-18.44S609,399.7,609,399.7Z" transform="translate(-553.74 -378.51)"/><path class="cls-5" d="M611.87,405.92c.87,2.81,4.3,15-2.43,26.07-1.48,2.44-6.36,10.47-13.62,10.61-8.66.16-15.13-11-16.92-19.09-.66-3-1.93-8.77.91-13.43C584.26,402.79,597.52,400.35,611.87,405.92Z" transform="translate(-553.74 -378.51)"/><path class="cls-5" d="M616.28,455.26l-.07,0-.42-.24-.76-.25a6.27,6.27,0,0,1-1.84-1.11l-.56-.28a4.58,4.58,0,0,1-1.21-.61,28.24,28.24,0,0,1-4.8-2.93c-4.61-3.78-1.73-29-1.73-29l-19.47-8.06s2.37,26.12,1.9,31.23c-.68,7.15-11.24,10.3-18.11,11.6,0,.08.06.18.1.26a6.05,6.05,0,0,1,1.2.52H614.4C617.05,456.32,617.28,455.94,616.28,455.26Z" transform="translate(-553.74 -378.51)"/><path class="cls-5" d="M572.83,459.7c11.63.32,23.33-1.12,34.92-.53,3.21.16,3.2-4.84,0-5-11.59-.59-23.29.85-34.92.53-3.22-.09-3.22,4.91,0,5Z" transform="translate(-553.74 -378.51)"/><path class="cls-5" d="M612.73,455.47l-2.54-.06,1.27,4.66c1.11-.62,2.23-2.86.57-3.8-.46-.25-3.81.8-4.57.93a82.27,82.27,0,0,1-9.52,1.07,85.32,85.32,0,0,1-17.92-1c-3.14-.5-4.5,4.32-1.33,4.82,11.56,1.85,25.21,2.47,36.48-1.44,2.23-.78,4.73-3,3-5.61-2.1-3.24-6.93-.61-9.28.72a2.51,2.51,0,0,0,1.26,4.65l2.54.06c3.22.07,3.22-4.93,0-5Z" transform="translate(-553.74 -378.51)"/><path class="cls-6" d="M597,430a16.18,16.18,0,0,1-3.35-.39l.31-.27a20.41,20.41,0,0,0,2.91.39,10.24,10.24,0,0,0-.5-3.67l.6-.08c1,3.79.44,3.93.18,4A.57.57,0,0,1,597,430Z" transform="translate(-553.74 -378.51)"/><path class="cls-6" d="M596.24,436.2a7.82,7.82,0,0,1-4.55-1.87l.72-.48s2.13,1.86,4.24,1.59a3.94,3.94,0,0,0,2.87-2.36l.88.27a4.76,4.76,0,0,1-3.6,2.81A3.52,3.52,0,0,1,596.24,436.2Z" transform="translate(-553.74 -378.51)"/><ellipse class="cls-7" cx="35.74" cy="44.87" rx="1.21" ry="1.57"/><ellipse class="cls-7" cx="48.42" cy="44.87" rx="1.21" ry="1.57"/><path class="cls-5" d="M581.45,425.19s-2.24-6.64-5.18-3.75.29,10.85,3.11,10.82S582.77,427.9,581.45,425.19Z" transform="translate(-553.74 -378.51)"/><path class="cls-5" d="M610.18,424.93s2.27-6.62,5.2-3.73S615,432.05,612.21,432,608.84,427.64,610.18,424.93Z" transform="translate(-553.74 -378.51)"/><path class="cls-8" d="M587.21,439.6s8.53,6.48,16.8.53l.17,3.31s-1.92,3.55-7.39,3.82-9.47-3.74-9.47-3.74Z" transform="translate(-553.74 -378.51)"/><path class="cls-4" d="M600.18,417.33s2.16-2.1,5.21.15C607.18,418.8,597.69,419.53,600.18,417.33Z" transform="translate(-553.74 -378.51)"/><path class="cls-4" d="M590.93,417.33s-2.16-2.1-5.21.15C583.93,418.8,593.42,419.53,590.93,417.33Z" transform="translate(-553.74 -378.51)"/><path class="cls-6" d="M578.89,429.64c-.19-4.52-1.08-5.35-1.45-5.49s-.89.29-.9.29l-.57-.56a1.78,1.78,0,0,1,1.75-.48c1.17.45,1.81,2.48,2,6.21Z" transform="translate(-553.74 -378.51)"/><path class="cls-6" d="M612.07,429.64l-.79,0c.15-3.73.79-5.76,2-6.21a1.76,1.76,0,0,1,1.74.48l-.57.56.29-.28-.29.28s-.45-.46-.89-.29S612.26,425.12,612.07,429.64Z" transform="translate(-553.74 -378.51)"/><path class="cls-4" d="M585,437.92c-5.83-12.94-4.91-18.37-2.63-20.84,1.46-1.59,3.18-1.62,6.31-3a29.42,29.42,0,0,0,12.13-10.65,34.38,34.38,0,0,0,4.1,8,39.2,39.2,0,0,0,3.71,4.49c5.72,6.75-1.32,23.61-1,23.72s12.95-18.87,4.89-33c-.69-1.21-4.66-7.9-12.11-9.29-8.92-1.66-17.75,5.23-21.32,12.77C574.89,418.85,577.2,430.07,585,437.92Z" transform="translate(-553.74 -378.51)"/><path class="cls-4" d="M593.1,421.84" transform="translate(-553.74 -378.51)"/><path class="cls-4" d="M574.77,413.29c-.48-.14-1-.28-1.46-.44l.27-.76c6.26,2,11.65,2.11,16.06.39,9.44-3.69,11.28-14.72,11.3-14.83l1.08.23c-.07.47-1.91,11.5-11.76,15.35C585.93,414.92,580.73,414.93,574.77,413.29Z" transform="translate(-553.74 -378.51)"/><path class="cls-4" d="M620.75,424.28l-.79-.11c1.35-9.55-.3-17.15-4.9-22.6-6.95-8.24-18.39-8.66-18.51-8.66l0-.8c.11,0,11.91.44,19.09,8.95C620.42,406.69,622.13,414.5,620.75,424.28Z" transform="translate(-553.74 -378.51)"/><path class="cls-9" d="M611.28,419.65A30.57,30.57,0,0,0,597,397.84l.37-.71a31.49,31.49,0,0,1,14.71,22.4Z" transform="translate(-553.74 -378.51)"/><path class="cls-9" d="M616.92,419.66l-.79-.13c2.78-16.8-16.3-23.09-16.49-23.15l.24-.76C600.08,395.69,619.8,402.19,616.92,419.66Z" transform="translate(-553.74 -378.51)"/><path class="cls-9" d="M578.9,423.51l-1.18-.11a29.57,29.57,0,0,1,.39-5.9A30.86,30.86,0,0,1,580,411c2.72-6,9-9.3,11-10.27l.74.28a22.16,22.16,0,0,0-7.42,5.62C578.54,413.31,578.78,421.39,578.9,423.51Z" transform="translate(-553.74 -378.51)"/><path class="cls-9" d="M574.44,421.81h-.79c0-8.54,2.16-14.93,6.44-19a16.3,16.3,0,0,1,11.28-4.5l0,.79a15.89,15.89,0,0,0-10.71,4.29C576.52,407.32,574.44,413.51,574.44,421.81Z" transform="translate(-553.74 -378.51)"/><path class="cls-9" d="M613.19,455.54c-2.14-4.38-2.77-20.07-2.79-20.74l.79,0c0,.16.65,16.19,2.72,20.42Z" transform="translate(-553.74 -378.51)"/><path class="cls-9" d="M577.42,453.43l-.76-.25c1.83-5.52,1.41-17.75,1.4-17.87l.8,0C578.88,435.79,579.29,447.77,577.42,453.43Z" transform="translate(-553.74 -378.51)"/><path class="cls-10" d="M587.67,429.66a5.81,5.81,0,1,1,5.8-5.81A5.82,5.82,0,0,1,587.67,429.66Zm0-11.08a5.28,5.28,0,1,0,5.27,5.27A5.29,5.29,0,0,0,587.67,418.58Z" transform="translate(-553.74 -378.51)"/><path class="cls-10" d="M603.37,429.66a5.81,5.81,0,1,1,5.81-5.81A5.81,5.81,0,0,1,603.37,429.66Zm0-11.08a5.28,5.28,0,1,0,5.28,5.27A5.28,5.28,0,0,0,603.37,418.58Z" transform="translate(-553.74 -378.51)"/><rect class="cls-10" x="580.11" y="420.12" width="0.53" height="4.56" transform="translate(-668.94 221.16) rotate(-50.35)"/><rect class="cls-10" x="39.46" y="45.08" width="4.63" height="0.53"/><rect class="cls-10" x="608.38" y="422.02" width="5.16" height="0.53" transform="translate(-684.53 81.21) rotate(-37.54)"/><path class="cls-9" d="M632.92,378.33" transform="translate(-553.74 -378.51)"/><path class="cls-4" d="M602,409.73a12.74,12.74,0,0,1-.46-7.73,4.69,4.69,0,0,1-.83-.44,13.31,13.31,0,0,0,.5,8.13c1.35,3.49,4.16,6.74,8.39,9.69l1,.72.31-.53C606.37,416.59,603.36,413.28,602,409.73Z" transform="translate(-553.74 -378.51)"/></g></svg>